<?xml version="1.0" encoding="utf-8"?>
<!-- Generator: Adobe Illustrator 25.4.1, SVG Export Plug-In . SVG Version: 6.00 Build 0)  -->
<svg version="1.1" id="Layer_1" xmlns="http://www.w3.org/2000/svg" xmlns:xlink="http://www.w3.org/1999/xlink" x="0px" y="0px"
	 viewBox="0 0 2000 2000" style="enable-background:new 0 0 2000 2000;" xml:space="preserve">
<style type="text/css">
	.st0{display:none;fill:#1A1F2C;}
	.st1{display:none;}
	.st2{display:inline;}
	.st3{display:inline;fill:none;stroke:#000000;stroke-width:6;stroke-miterlimit:10;}
	.st4{fill:url(#SVGID_1_);}
	.st5{fill:url(#SVGID_00000177486138025070981230000013160959525803875203_);}
	.st6{fill:url(#SVGID_00000023978881884747029010000004388019812712769667_);}
	.st7{fill:url(#SVGID_00000181809167194105983190000005549478971442063763_);}
	.st8{fill:url(#SVGID_00000111180678335944649340000009379201032904785552_);}
	.st9{fill:url(#SVGID_00000163763701020270479650000012397085458405047721_);}
	.st10{fill:url(#SVGID_00000138545699020709893310000003745917165572404098_);}
	.st11{fill:url(#SVGID_00000000190622303650742590000016994726821809915031_);}
	.st12{fill:url(#SVGID_00000178927011514178989780000008637151791183998647_);}
	.st13{fill:url(#SVGID_00000106145883258222054220000013107332729050024895_);}
	.st14{fill:url(#SVGID_00000026126124581275808440000003298248340504752804_);}
	.st15{fill:url(#SVGID_00000001630850342283584030000001161611713243319951_);}
	.st16{fill:url(#SVGID_00000127018434765408580520000014023822775401105559_);}
	.st17{fill:url(#SVGID_00000158708266278417617730000004056297708424919966_);}
	.st18{fill:url(#SVGID_00000182507537225232908610000007591590288094815878_);}
	.st19{fill:url(#SVGID_00000125564976538461386880000001957232941122369155_);}
	.st20{fill:url(#SVGID_00000067948924817924400900000012437353576092347532_);}
	.st21{fill:url(#SVGID_00000085935632569820015190000001866338226097717165_);}
	.st22{fill:url(#SVGID_00000045581340627499252660000018107434389993738918_);}
	.st23{fill:url(#SVGID_00000010993063458868567670000008893458798389252514_);}
	.st24{fill:url(#SVGID_00000150102923884490638890000007836889379547472779_);}
	.st25{fill:url(#SVGID_00000056402638732845582490000009364751614169153412_);}
	.st26{fill:url(#SVGID_00000015353596689886252110000002126737932087069069_);}
	.st27{fill:#1A1F2C;}
	.st28{fill:url(#SVGID_00000127732159927400687220000008491959807957981878_);}
	.st29{fill:url(#SVGID_00000016036842369557968030000004895857741115396224_);}
	.st30{fill:url(#SVGID_00000132790493600884449260000010361583590925450157_);}
	.st31{fill:url(#SVGID_00000068652042726144607470000015915727796508758433_);}
	.st32{fill:url(#SVGID_00000029023982100905874870000002878945848418130615_);}
	.st33{fill:url(#SVGID_00000061435747173179547060000013130421195619972760_);}
	.st34{fill:url(#SVGID_00000060021343866608197320000015290242813783754170_);}
	.st35{fill:url(#SVGID_00000141448282944920930450000012740545875115717017_);}
	.st36{fill:url(#SVGID_00000168115240142230161760000009310864205989610933_);}
	.st37{fill:url(#SVGID_00000042716374822435638380000017067365224977230780_);}
	.st38{fill:url(#SVGID_00000132074467001807647510000005068395941967435398_);}
	.st39{fill:url(#SVGID_00000070078033417170127620000012682013237585035405_);}
	.st40{fill:url(#SVGID_00000119091310744468682500000006715971611789098125_);}
	.st41{fill:url(#SVGID_00000119111900558825518680000001842437654855626675_);}
	.st42{fill:url(#SVGID_00000117658516380777679320000016633015372682012046_);}
	.st43{fill:url(#SVGID_00000045595699303833358790000008258414228787031972_);}
	.st44{fill:url(#SVGID_00000012465909741309389010000002549757351965165700_);}
	.st45{fill:url(#SVGID_00000001647140389030291570000014145329170308637875_);}
	.st46{fill:url(#SVGID_00000149357955912866181650000014574165830234381184_);}
	.st47{fill:url(#SVGID_00000018223719093096167390000008078546090467853982_);}
	.st48{fill:url(#SVGID_00000049902163340731340940000005781558224011316374_);}
	.st49{fill:url(#SVGID_00000034065412442818566440000011776005863809345465_);}
	.st50{fill:url(#SVGID_00000161608457503476673230000010069276446022405289_);}
	.st51{fill:url(#SVGID_00000090275339527727438990000013728177538318079407_);}
	.st52{fill:url(#SVGID_00000067233658558509357120000011538499776789694140_);}
	.st53{fill:url(#SVGID_00000019643097492330612540000012261656061248644525_);}
	.st54{fill:url(#SVGID_00000028312709165822811210000009021741344711012237_);}
	.st55{fill:url(#SVGID_00000142897241391324772420000010143305077540089018_);}
	.st56{fill:url(#SVGID_00000148639841201447571850000018424590028557260449_);}
	.st57{fill:url(#SVGID_00000061470474263031575340000014111036140246125756_);}
	.st58{fill:url(#SVGID_00000061467157583837164750000014209848986312241538_);}
	.st59{fill:url(#SVGID_00000041257843532640556540000002113214245008176541_);}
	.st60{fill:url(#SVGID_00000173882396899645895960000005130818582852577419_);}
	.st61{fill:url(#SVGID_00000115472540683814469210000002272401617445179832_);}
	.st62{fill:url(#SVGID_00000016040462171989333890000014575212231087990948_);}
	.st63{fill:url(#SVGID_00000107546426508359878180000001611714309031459261_);}
	.st64{fill:url(#SVGID_00000103983497511387078980000007478566549632515261_);}
	.st65{fill:url(#SVGID_00000145741600698374153030000005219730325616196527_);}
	.st66{fill:url(#SVGID_00000053506837282271179480000010074740366643845256_);}
	.st67{fill:url(#SVGID_00000013881924493107012950000008855094376006708397_);}
	.st68{fill:url(#SVGID_00000130649086320100121000000014528161782660602284_);}
	.st69{fill:url(#SVGID_00000001628887480066060860000005911041389542122624_);}
	.st70{fill:url(#SVGID_00000157283012506525550260000018160697000580347049_);}
	.st71{fill:url(#SVGID_00000166653475881526718830000018061132949581291191_);}
	.st72{fill:url(#SVGID_00000128481519539663730250000007294159789650696332_);}
	.st73{fill:url(#SVGID_00000009547756324093898000000012724276733788965044_);}
	.st74{fill:url(#SVGID_00000005224238548891310620000014406045596275899537_);}
	.st75{fill:url(#SVGID_00000091709097509871850090000002187572270585491111_);}
	.st76{fill:url(#SVGID_00000043457038992742719720000006444980041961766020_);}
	.st77{fill:url(#SVGID_00000102544021175933260500000004290731781612486587_);}
	.st78{fill:url(#SVGID_00000153663722265358113490000006075159044541114030_);}
	.st79{fill:url(#SVGID_00000104698702549602130160000018335604090105336997_);}
	.st80{fill:url(#SVGID_00000060020290231139580380000006561638113429542556_);}
	.st81{fill:url(#SVGID_00000097468546884183798370000006991337995463341997_);}
	.st82{fill:url(#SVGID_00000170255905778619837760000010182022227697185921_);}
	.st83{fill:url(#SVGID_00000083779845539530743270000016369080632198878852_);}
	.st84{fill:url(#SVGID_00000129188700406844345590000013195978178063634825_);}
	.st85{fill:url(#SVGID_00000178178494098639800890000017527749913106363779_);}
	.st86{fill:url(#SVGID_00000085931041124287586680000000585374668515268756_);}
	.st87{fill:url(#SVGID_00000114049134916565131120000002813838825315123642_);}
	.st88{fill:url(#SVGID_00000172412170203354772750000011552706434152182956_);}
	.st89{fill:url(#SVGID_00000067914296620863232200000001889253109595257742_);}
	.st90{fill:url(#SVGID_00000093886168797476465870000016148467264279475093_);}
	.st91{fill:url(#SVGID_00000002344763560009654970000014583528428431518607_);}
	.st92{fill:url(#SVGID_00000165933213905477616600000013982138191043127980_);}
	.st93{fill:url(#SVGID_00000052817697359459069820000018400779894821497766_);}
	.st94{fill:url(#SVGID_00000134238981648236601050000004557688111408349570_);}
	.st95{fill:url(#SVGID_00000047019675537503827150000002726319884226011023_);}
	.st96{fill:url(#SVGID_00000039829414458640849460000007401382723937827757_);}
	.st97{fill:url(#SVGID_00000129898626896218797470000013072068108125544627_);}
	.st98{fill:url(#SVGID_00000016047568339597476280000009830214343844854197_);}
	.st99{fill:url(#SVGID_00000073001895299587100620000000956127556577578116_);}
	.st100{fill:url(#SVGID_00000172436944599977567140000016014880533051800714_);}
	.st101{fill:url(#SVGID_00000152955850342518528900000013579016048250962085_);}
	.st102{fill:url(#SVGID_00000033337042885170493720000002257560321042481081_);}
	.st103{fill:url(#SVGID_00000070089090886285941870000015567184858578719634_);}
	.st104{fill:url(#SVGID_00000003797920488050673930000018443015000642091434_);}
	.st105{fill:url(#SVGID_00000083777883482393424100000007809258198356636595_);}
	.st106{fill:url(#SVGID_00000168089084868068126340000010192840100931248827_);}
	.st107{fill:url(#SVGID_00000097494363196863089350000002448009649490413485_);}
	.st108{fill:url(#SVGID_00000064319573673877385610000004444585302903485839_);}
	.st109{fill:url(#SVGID_00000036973731665638533510000007601207142402768550_);}
	.st110{fill:url(#SVGID_00000153678943194156112150000005031515884874693516_);}
	.st111{fill:url(#SVGID_00000109000626854724715880000000163615444320885660_);}
	.st112{fill:url(#SVGID_00000145737948998727886610000000524057054174763444_);}
	.st113{fill:url(#SVGID_00000050632015279462821440000004304852563933914247_);}
	.st114{fill:url(#SVGID_00000142889782975835644140000012401902280951623077_);}
	.st115{fill:url(#SVGID_00000031923148724533534040000012502024170342006953_);}
	.st116{fill:url(#SVGID_00000006668571456940167660000007659760680901548178_);}
	.st117{fill:url(#SVGID_00000052791271911825539570000011447161758604587185_);}
	.st118{fill:url(#SVGID_00000176753465569394142440000010989148391489200563_);}
	.st119{fill:url(#SVGID_00000035528264548782225750000006132582666711638456_);}
	.st120{fill:url(#SVGID_00000150791163136266092670000013010197902837867922_);}
	.st121{fill:url(#SVGID_00000107585189804090662540000010848982239093046182_);}
	.st122{fill:url(#SVGID_00000094615048293141938760000010030056164512616379_);}
	.st123{fill:url(#SVGID_00000000905171497884263580000017468941439178856352_);}
	.st124{fill:url(#SVGID_00000044877899059286280160000008259090642145854395_);}
	.st125{fill:url(#SVGID_00000178164294680401109600000015649622612116733573_);}
	.st126{fill:url(#SVGID_00000151526280395297175050000001480661362432686731_);}
	.st127{fill:url(#SVGID_00000090978181129707156090000013427990495738674359_);}
	.st128{fill:url(#SVGID_00000128446376705081758210000001493438237511147437_);}
	.st129{fill:url(#SVGID_00000131348374889690346890000004577098098576457899_);}
	.st130{fill:url(#SVGID_00000062183073458980330080000008792629872177848974_);}
	.st131{fill:url(#SVGID_00000113342283271919011170000011711574119502635951_);}
	.st132{fill:url(#SVGID_00000129914609905687741640000000714652797956723604_);}
	.st133{fill:url(#SVGID_00000160149792877415799760000001441343459234072503_);}
	.st134{fill:url(#SVGID_00000115475534727952418410000010876605080060678317_);}
	.st135{fill:url(#SVGID_00000022522556798168774590000009202378916604535988_);}
	.st136{fill:url(#SVGID_00000087391534643732419340000004030021749032620417_);}
	.st137{fill:url(#SVGID_00000088855878732483495940000006387483343125433777_);}
	.st138{fill:url(#SVGID_00000158725575946433941810000006953707254937712573_);}
	.st139{fill:url(#SVGID_00000066474639769651674520000007014231197792333953_);}
	.st140{fill:url(#SVGID_00000062171582755793335570000005038624942274587555_);}
	.st141{fill:url(#SVGID_00000072985246954833592640000016034748547707731346_);}
	.st142{fill:url(#SVGID_00000143590674533263246280000017411724309481049012_);}
	.st143{fill:url(#SVGID_00000000940781939825989650000002692185465641686967_);}
	.st144{fill:url(#SVGID_00000063596362662251458110000003077432188058965382_);}
	.st145{fill:url(#SVGID_00000000935887464421192350000017537128682317048767_);}
	.st146{fill:url(#SVGID_00000003083736488420649360000010834054506160453050_);}
	.st147{fill:url(#SVGID_00000031906864313015674730000007868184654093798072_);}
	.st148{fill:url(#SVGID_00000121992791369702722190000015501990352019239088_);}
	.st149{fill:url(#SVGID_00000011728945769620812910000016145449676609832894_);}
	.st150{fill:url(#SVGID_00000118389482115325002690000009548971308004874400_);}
	.st151{fill:url(#SVGID_00000178177597692876612540000016510072545001594756_);}
	.st152{fill:url(#SVGID_00000124873566008226376610000004113426164569600400_);}
	.st153{fill:url(#SVGID_00000067213922202666396700000010609131143658579878_);}
</style>
<rect class="st27" width="2000" height="2000"/>
<g>
	<g>
		<linearGradient id="SVGID_1_" gradientUnits="userSpaceOnUse" x1="574.9921" y1="875.1854" x2="574.9921" y2="1199.2961">
			<stop  offset="0" style="stop-color:#70EDFF"/>
			<stop  offset="1" style="stop-color:#2671BC"/>
		</linearGradient>
		<path class="st4" d="M619.69,921.2c-4.67,4.6-7.05,10.63-7.15,16.69c-0.17,10.08-4.06,19.74-11.18,26.86l0,0
			c-7.14,7.14-16.83,10.99-26.93,11.19c-5.99,0.12-11.94,2.46-16.51,7.03c-4.57,4.57-6.91,10.52-7.03,16.51
			c-0.2,10.1-4.04,19.79-11.19,26.93l0,0c-7.13,7.13-16.79,11.01-26.87,11.18c-6.06,0.1-12.09,2.48-16.69,7.14
			c-8.96,9.08-9.14,24.16-0.38,33.44c9.36,9.9,24.97,10.07,34.54,0.5c4.57-4.57,6.91-10.52,7.03-16.51
			c0.2-10.1,4.04-19.79,11.19-26.93h0c7.14-7.14,16.83-10.99,26.93-11.19c5.99-0.12,11.94-2.46,16.51-7.03
			c4.57-4.57,6.91-10.52,7.03-16.51c0.2-10.1,4.04-19.79,11.19-26.93l0,0c7.14-7.14,16.83-10.99,26.93-11.19
			c5.99-0.12,11.94-2.46,16.51-7.03c9.57-9.57,9.4-25.18-0.5-34.53C643.86,912.07,628.77,912.24,619.69,921.2z"/>
		
			<linearGradient id="SVGID_00000120550310920763483250000014535294283984753025_" gradientUnits="userSpaceOnUse" x1="574.9921" y1="875.1854" x2="574.9921" y2="1199.2961">
			<stop  offset="0" style="stop-color:#70EDFF"/>
			<stop  offset="1" style="stop-color:#2671BC"/>
		</linearGradient>
		<path style="fill:url(#SVGID_00000120550310920763483250000014535294283984753025_);" d="M653.84,1044.75
			c-4.6-4.67-10.63-7.05-16.69-7.15c-10.08-0.17-19.74-4.06-26.86-11.18l0,0c-7.14-7.14-10.99-16.83-11.19-26.93
			c-0.12-5.99-2.46-11.94-7.03-16.51c-4.57-4.57-10.52-6.91-16.51-7.03c-10.1-0.2-19.79-4.04-26.93-11.19l0,0
			c-7.13-7.13-11.01-16.79-11.18-26.87c-0.1-6.06-2.48-12.09-7.14-16.69c-9.08-8.96-24.16-9.14-33.44-0.38
			c-9.9,9.36-10.07,24.97-0.5,34.54c4.57,4.57,10.52,6.91,16.51,7.03c10.1,0.2,19.79,4.04,26.93,11.19v0
			c7.14,7.14,10.99,16.83,11.19,26.93c0.12,5.99,2.46,11.94,7.03,16.51c4.57,4.57,10.52,6.91,16.51,7.03
			c10.1,0.2,19.79,4.04,26.93,11.19l0,0c7.14,7.14,10.99,16.83,11.19,26.93c0.12,5.99,2.46,11.94,7.03,16.51
			c9.57,9.57,25.18,9.4,34.53-0.5C662.98,1068.92,662.8,1053.83,653.84,1044.75z"/>
		
			<linearGradient id="SVGID_00000156547329867631548960000011427794080444809401_" gradientUnits="userSpaceOnUse" x1="574.9404" y1="875.1854" x2="574.9404" y2="1199.2961">
			<stop  offset="0" style="stop-color:#70EDFF"/>
			<stop  offset="1" style="stop-color:#2671BC"/>
		</linearGradient>
		<path style="fill:url(#SVGID_00000156547329867631548960000011427794080444809401_);" d="M574.94,901.34
			c13.3,0,24.08-10.78,24.08-24.08s-10.78-24.08-24.08-24.08c-13.3,0-24.08,10.78-24.08,24.08S561.64,901.34,574.94,901.34z"/>
		
			<linearGradient id="SVGID_00000144332304894942553300000017577841428999749797_" gradientUnits="userSpaceOnUse" x1="574.9404" y1="875.1854" x2="574.9404" y2="1199.2961">
			<stop  offset="0" style="stop-color:#70EDFF"/>
			<stop  offset="1" style="stop-color:#2671BC"/>
		</linearGradient>
		<path style="fill:url(#SVGID_00000144332304894942553300000017577841428999749797_);" d="M574.94,948.47
			c5.53,0,10.02-4.49,10.02-10.02s-4.49-10.02-10.02-10.02c-5.53,0-10.02,4.49-10.02,10.02S569.41,948.47,574.94,948.47z"/>
		
			<linearGradient id="SVGID_00000075124881789517083400000017625276697680339376_" gradientUnits="userSpaceOnUse" x1="513.3839" y1="875.1854" x2="513.3839" y2="1199.2961">
			<stop  offset="0" style="stop-color:#70EDFF"/>
			<stop  offset="1" style="stop-color:#2671BC"/>
		</linearGradient>
		<path style="fill:url(#SVGID_00000075124881789517083400000017625276697680339376_);" d="M523.41,1000.1
			c0-5.53-4.49-10.02-10.02-10.02c-5.53,0-10.02,4.49-10.02,10.02c0,5.53,4.49,10.02,10.02,10.02
			C518.92,1010.13,523.41,1005.64,523.41,1000.1z"/>
		
			<linearGradient id="SVGID_00000088121570595358631950000011230847959988677546_" gradientUnits="userSpaceOnUse" x1="575.0437" y1="875.1854" x2="575.0437" y2="1199.2961">
			<stop  offset="0" style="stop-color:#70EDFF"/>
			<stop  offset="1" style="stop-color:#2671BC"/>
		</linearGradient>
		<path style="fill:url(#SVGID_00000088121570595358631950000011230847959988677546_);" d="M575.04,1051.64
			c-5.53,0-10.02,4.49-10.02,10.02s4.49,10.02,10.02,10.02s10.02-4.49,10.02-10.02S580.58,1051.64,575.04,1051.64z"/>
		
			<linearGradient id="SVGID_00000170280113836518855220000005451836368788717466_" gradientUnits="userSpaceOnUse" x1="636.6003" y1="875.1854" x2="636.6003" y2="1199.2961">
			<stop  offset="0" style="stop-color:#70EDFF"/>
			<stop  offset="1" style="stop-color:#2671BC"/>
		</linearGradient>
		<path style="fill:url(#SVGID_00000170280113836518855220000005451836368788717466_);" d="M626.58,1000
			c0,5.53,4.49,10.02,10.02,10.02s10.02-4.49,10.02-10.02s-4.49-10.02-10.02-10.02S626.58,994.47,626.58,1000z"/>
		
			<linearGradient id="SVGID_00000062876670977653031180000016202860695409993391_" gradientUnits="userSpaceOnUse" x1="452.2072" y1="875.1854" x2="452.2072" y2="1199.2961">
			<stop  offset="0" style="stop-color:#70EDFF"/>
			<stop  offset="1" style="stop-color:#2671BC"/>
		</linearGradient>
		<circle style="fill:url(#SVGID_00000062876670977653031180000016202860695409993391_);" cx="452.21" cy="1000" r="24.08"/>
		
			<linearGradient id="SVGID_00000160192756809607645030000014325026766133738911_" gradientUnits="userSpaceOnUse" x1="574.9404" y1="875.1854" x2="574.9404" y2="1199.2961">
			<stop  offset="0" style="stop-color:#70EDFF"/>
			<stop  offset="1" style="stop-color:#2671BC"/>
		</linearGradient>
		<path style="fill:url(#SVGID_00000160192756809607645030000014325026766133738911_);" d="M574.94,1098.66
			c-13.3,0-24.08,10.78-24.08,24.08c0,13.3,10.78,24.08,24.08,24.08c13.3,0,24.08-10.78,24.08-24.08
			C599.02,1109.44,588.24,1098.66,574.94,1098.66z"/>
		
			<linearGradient id="SVGID_00000075162232508711703570000005218377138574769297_" gradientUnits="userSpaceOnUse" x1="697.6739" y1="875.1854" x2="697.6739" y2="1199.2961">
			<stop  offset="0" style="stop-color:#70EDFF"/>
			<stop  offset="1" style="stop-color:#2671BC"/>
		</linearGradient>
		<path style="fill:url(#SVGID_00000075162232508711703570000005218377138574769297_);" d="M697.67,975.92
			c-13.3,0-24.08,10.78-24.08,24.08c0,13.3,10.78,24.08,24.08,24.08c13.3,0,24.08-10.78,24.08-24.08
			C721.75,986.7,710.97,975.92,697.67,975.92z"/>
	</g>
	<g>
		<g>
			
				<linearGradient id="SVGID_00000150071700232380759430000009164046845941230989_" gradientUnits="userSpaceOnUse" x1="816.1448" y1="875.1854" x2="816.1448" y2="1199.2961">
				<stop  offset="0" style="stop-color:#70EDFF"/>
				<stop  offset="1" style="stop-color:#2671BC"/>
			</linearGradient>
			<path style="fill:url(#SVGID_00000150071700232380759430000009164046845941230989_);" d="M835.21,1050.06l-18.99-29.71
				l-18.99,29.71h-20.89l29.71-45.58l-27.95-43.96h20.89l17.23,28.22l17.09-28.22h20.76l-27.54,43.96l29.44,45.58H835.21z"/>
			
				<linearGradient id="SVGID_00000088110731873322414750000000849077089809205649_" gradientUnits="userSpaceOnUse" x1="876.1087" y1="875.1854" x2="876.1087" y2="1199.2961">
				<stop  offset="0" style="stop-color:#70EDFF"/>
				<stop  offset="1" style="stop-color:#2671BC"/>
			</linearGradient>
			<path style="fill:url(#SVGID_00000088110731873322414750000000849077089809205649_);" d="M866.95,948.31h18.31v101.75h-18.31
				V948.31z"/>
			
				<linearGradient id="SVGID_00000150102752086667009090000007066055256588177596_" gradientUnits="userSpaceOnUse" x1="933.0171" y1="875.1854" x2="933.0171" y2="1199.2961">
				<stop  offset="0" style="stop-color:#70EDFF"/>
				<stop  offset="1" style="stop-color:#2671BC"/>
			</linearGradient>
			<path style="fill:url(#SVGID_00000150102752086667009090000007066055256588177596_);" d="M918.1,1022.65
				c2.17,8.55,9.09,13.29,18.86,13.29c6.65,0,12.89-2.31,18.72-6.78l7.6,12.48c-8,6.65-16.96,10.04-26.86,10.04
				c-20.76,0.41-37.17-15.74-36.77-35.14c-0.41-19.4,15.74-35.54,35.14-35.14c18.59,0,31.61,13.7,31.61,31.2
				c0,3.26-0.41,6.65-1.22,10.04H918.1z M948.62,1009.76c-0.13-8.28-6.51-13.57-14.52-13.57c-7.73,0-13.97,5.29-16.01,13.57H948.62z
				"/>
			
				<linearGradient id="SVGID_00000071539184856359656550000006576722216953179285_" gradientUnits="userSpaceOnUse" x1="1006.7547" y1="875.1854" x2="1006.7547" y2="1199.2961">
				<stop  offset="0" style="stop-color:#70EDFF"/>
				<stop  offset="1" style="stop-color:#2671BC"/>
			</linearGradient>
			<path style="fill:url(#SVGID_00000071539184856359656550000006576722216953179285_);" d="M1043.05,982.9l-33.24,68.78h-6.1
				l-33.24-68.78h19.26l16.96,37.99l16.96-37.99H1043.05z"/>
			
				<linearGradient id="SVGID_00000041988784851948166570000013371170569307528883_" gradientUnits="userSpaceOnUse" x1="1077.0975" y1="875.1854" x2="1077.0975" y2="1199.2961">
				<stop  offset="0" style="stop-color:#70EDFF"/>
				<stop  offset="1" style="stop-color:#2671BC"/>
			</linearGradient>
			<path style="fill:url(#SVGID_00000041988784851948166570000013371170569307528883_);" d="M1107.35,1050.06h-16.82v-6.51
				c-4.88,5.02-11.94,8.14-20.48,8.14c-14.25,0-23.2-8.28-23.2-20.08c0-12.07,9.77-19.54,25.37-19.54h16.82v-2.98
				c0-7.46-4.34-11.8-12.48-11.8c-6.92,0-11.8,2.85-17.77,9.23l-9.5-11.26c7.73-9.23,17.5-13.84,29.3-13.84
				c17.5,0,28.76,10.17,28.76,28.76V1050.06z M1089.04,1024.14h-14.38c-5.97,0-9.36,2.31-9.36,6.78s3.8,7.33,9.63,7.33
				c8,0,14.11-5.56,14.11-13.3V1024.14z"/>
			
				<linearGradient id="SVGID_00000057128119548101517330000007343940435755832451_" gradientUnits="userSpaceOnUse" x1="1143.099" y1="875.1854" x2="1143.099" y2="1199.2961">
				<stop  offset="0" style="stop-color:#70EDFF"/>
				<stop  offset="1" style="stop-color:#2671BC"/>
			</linearGradient>
			<path style="fill:url(#SVGID_00000057128119548101517330000007343940435755832451_);" d="M1168.13,1050.06
				c-4.34,1.08-8.55,1.63-12.62,1.63c-16.96,0-26.86-8.41-26.86-25.23v-28.08h-10.58V982.9h10.58v-16.96h18.31v16.96h18.99v15.47
				h-18.99v26.46c0,7.6,3.8,10.45,12.48,10.45c1.08,0,3.93-0.14,8.68-0.54V1050.06z"/>
			
				<linearGradient id="SVGID_00000115475749564286066040000015896784192580750520_" gradientUnits="userSpaceOnUse" x1="1209.6387" y1="875.1854" x2="1209.6387" y2="1199.2961">
				<stop  offset="0" style="stop-color:#70EDFF"/>
				<stop  offset="1" style="stop-color:#2671BC"/>
			</linearGradient>
			<path style="fill:url(#SVGID_00000115475749564286066040000015896784192580750520_);" d="M1194.72,1022.65
				c2.17,8.55,9.09,13.29,18.86,13.29c6.65,0,12.89-2.31,18.72-6.78l7.6,12.48c-8,6.65-16.96,10.04-26.86,10.04
				c-20.76,0.41-37.17-15.74-36.77-35.14c-0.41-19.4,15.74-35.54,35.14-35.14c18.59,0,31.61,13.7,31.61,31.2
				c0,3.26-0.41,6.65-1.22,10.04H1194.72z M1225.24,1009.76c-0.14-8.28-6.51-13.57-14.52-13.57c-7.73,0-13.97,5.29-16.01,13.57
				H1225.24z"/>
			
				<linearGradient id="SVGID_00000113330270451606104160000011781211207605623947_" gradientUnits="userSpaceOnUse" x1="1319.1249" y1="875.1854" x2="1319.1249" y2="1199.2961">
				<stop  offset="0" style="stop-color:#70EDFF"/>
				<stop  offset="1" style="stop-color:#2671BC"/>
			</linearGradient>
			<path style="fill:url(#SVGID_00000113330270451606104160000011781211207605623947_);" d="M1309.9,977.07h-28.63v-16.55h75.7
				v16.55h-28.76v72.99h-18.32V977.07z"/>
			
				<linearGradient id="SVGID_00000162313109498977254160000017357541163969106069_" gradientUnits="userSpaceOnUse" x1="1387.6323" y1="875.1854" x2="1387.6323" y2="1199.2961">
				<stop  offset="0" style="stop-color:#70EDFF"/>
				<stop  offset="1" style="stop-color:#2671BC"/>
			</linearGradient>
			<path style="fill:url(#SVGID_00000162313109498977254160000017357541163969106069_);" d="M1372.71,1022.65
				c2.17,8.55,9.09,13.29,18.86,13.29c6.65,0,12.89-2.31,18.72-6.78l7.6,12.48c-8,6.65-16.96,10.04-26.86,10.04
				c-20.76,0.41-37.17-15.74-36.77-35.14c-0.41-19.4,15.74-35.54,35.14-35.14c18.59,0,31.61,13.7,31.61,31.2
				c0,3.26-0.41,6.65-1.22,10.04H1372.71z M1403.24,1009.76c-0.13-8.28-6.51-13.57-14.52-13.57c-7.73,0-13.97,5.29-16.01,13.57
				H1403.24z"/>
			
				<linearGradient id="SVGID_00000010300982697759271230000016725783359262534801_" gradientUnits="userSpaceOnUse" x1="1464.0138" y1="875.1854" x2="1464.0138" y2="1199.2961">
				<stop  offset="0" style="stop-color:#70EDFF"/>
				<stop  offset="1" style="stop-color:#2671BC"/>
			</linearGradient>
			<path style="fill:url(#SVGID_00000010300982697759271230000016725783359262534801_);" d="M1467.41,981.41
				c13.16,0,23.34,6.24,29.17,16.55l-12.75,9.9c-4.21-6.1-9.09-9.77-16.14-9.77c-10.31,0-17.64,7.87-17.64,18.31
				c0,10.72,7.33,18.45,17.64,18.45c6.92,0,11.8-3.53,16.14-9.63l12.75,9.77c-5.83,10.31-16.14,16.69-29.17,16.69
				c-19.67,0.41-36.22-15.87-35.95-35.27C1431.46,996.74,1447.46,981.41,1467.41,981.41z"/>
			
				<linearGradient id="SVGID_00000015351250170854599550000003704194813703343516_" gradientUnits="userSpaceOnUse" x1="1541.0057" y1="875.1854" x2="1541.0057" y2="1199.2961">
				<stop  offset="0" style="stop-color:#70EDFF"/>
				<stop  offset="1" style="stop-color:#2671BC"/>
			</linearGradient>
			<path style="fill:url(#SVGID_00000015351250170854599550000003704194813703343516_);" d="M1571.87,1050.06h-18.18v-39.07
				c0-7.73-5.02-13.02-12.48-13.02c-7.46,0-12.75,5.29-12.75,13.02v39.07h-18.31V948.31h18.31v40.29
				c4.48-4.48,10.99-7.19,18.45-7.19c15.2,0,24.96,10.72,24.96,27V1050.06z"/>
		</g>
	</g>
</g>
</svg>
