<?xml version="1.0" encoding="utf-8"?>
<!-- Generator: Adobe Illustrator 25.4.1, SVG Export Plug-In . SVG Version: 6.00 Build 0)  -->
<svg version="1.1" id="Layer_1" xmlns="http://www.w3.org/2000/svg" xmlns:xlink="http://www.w3.org/1999/xlink" x="0px" y="0px"
	 viewBox="0 0 240 240" style="enable-background:new 0 0 240 240;" xml:space="preserve">
<style type="text/css">
	.st0{display:none;fill:#1A1F2C;}
	.st1{display:none;}
	.st2{display:inline;}
	.st3{display:inline;fill:none;stroke:#000000;stroke-width:6;stroke-miterlimit:10;}
	.st4{fill:url(#SVGID_1_);}
	.st5{fill:url(#SVGID_00000035525301311815434030000006375822420157580219_);}
	.st6{fill:url(#SVGID_00000156557002461453989040000003785886306424489403_);}
	.st7{fill:url(#SVGID_00000009554007649421608410000009823267059637595310_);}
	.st8{fill:url(#SVGID_00000157999296380373649460000011015966499329018008_);}
	.st9{fill:url(#SVGID_00000046327772183916361360000007820061335081830825_);}
	.st10{fill:url(#SVGID_00000127011402829282558400000009205064671328696489_);}
	.st11{fill:url(#SVGID_00000152232854982875873040000008747855349361660343_);}
	.st12{fill:url(#SVGID_00000080175966321440042310000016640587453016182456_);}
	.st13{fill:url(#SVGID_00000128477729902946118310000010398782900811591599_);}
	.st14{fill:url(#SVGID_00000112606594709189684760000000454157113924669618_);}
	.st15{fill:url(#SVGID_00000013175291683108373680000003038574587573095830_);}
	.st16{fill:url(#SVGID_00000069394250871423175420000003866621843987966856_);}
	.st17{fill:url(#SVGID_00000042000568291263877260000010781221997189927597_);}
	.st18{fill:url(#SVGID_00000104702809073056548200000014859577619029498283_);}
	.st19{fill:url(#SVGID_00000081606836812648984580000011005386465595518136_);}
	.st20{fill:url(#SVGID_00000045612860673144417500000006192557230511001278_);}
	.st21{fill:url(#SVGID_00000137825411369157861430000000555057807192096688_);}
	.st22{fill:url(#SVGID_00000148640688805593355270000011314377195905866941_);}
	.st23{fill:url(#SVGID_00000096031976067659215060000011154413208832347280_);}
	.st24{fill:url(#SVGID_00000070803639401515767180000007522180331066814119_);}
	.st25{fill:url(#SVGID_00000171717245399537342040000012688044161051165859_);}
	.st26{fill:url(#SVGID_00000051385551283245410090000008217899999780630425_);}
	.st27{fill:#1A1F2C;}
	.st28{fill:url(#SVGID_00000005963536874187777800000008488182947542638508_);}
	.st29{fill:url(#SVGID_00000031915455512252807910000010560200359465571514_);}
	.st30{fill:url(#SVGID_00000018213710518207110020000003711206244987654284_);}
	.st31{fill:url(#SVGID_00000124882085493931526450000012745941244146979498_);}
	.st32{fill:url(#SVGID_00000129892496900501004890000014611711076671358379_);}
	.st33{fill:url(#SVGID_00000157997939139687032670000011456280040400971928_);}
	.st34{fill:url(#SVGID_00000148658058109463347110000013961989894890356616_);}
	.st35{fill:url(#SVGID_00000166652410140035026610000000180872198807140245_);}
	.st36{fill:url(#SVGID_00000159466338617063011580000017672456091567892411_);}
	.st37{fill:url(#SVGID_00000105407452342394344100000006014939935133735323_);}
	.st38{fill:url(#SVGID_00000012452620977375668890000012343485519558054820_);}
	.st39{fill:url(#SVGID_00000088845208077328437400000001147466088956014464_);}
	.st40{fill:url(#SVGID_00000110449909981561619610000004193977632738202554_);}
	.st41{fill:url(#SVGID_00000029762160053350628490000004285074844188327340_);}
	.st42{fill:url(#SVGID_00000150079260835383505390000005641734346226515082_);}
	.st43{fill:url(#SVGID_00000083781144626682883050000014533725481643444370_);}
	.st44{fill:url(#SVGID_00000098181060579631568120000001238978467746656186_);}
	.st45{fill:url(#SVGID_00000143584226029893299440000013432218589548853162_);}
	.st46{fill:url(#SVGID_00000181768664289493143910000008762270629964610456_);}
	.st47{fill:url(#SVGID_00000010289222356214549350000010600409913124889477_);}
	.st48{fill:url(#SVGID_00000053511150673769676730000014231326052773044390_);}
	.st49{fill:url(#SVGID_00000094618865346009519590000013346117455040381375_);}
	.st50{fill:url(#SVGID_00000176005904950823434130000017961820648719570595_);}
	.st51{fill:url(#SVGID_00000108285826732858769270000009185557102341514159_);}
	.st52{fill:url(#SVGID_00000155850392604778740960000006080253998116737204_);}
	.st53{fill:url(#SVGID_00000132790914643127222800000009443634590131703179_);}
	.st54{fill:url(#SVGID_00000152265286274058222460000000804004658309039007_);}
	.st55{fill:url(#SVGID_00000159456882309379856860000003088234583735107726_);}
	.st56{fill:url(#SVGID_00000109004273250846505220000012060532616812730021_);}
	.st57{fill:url(#SVGID_00000030470049294881450990000011684085170460872605_);}
	.st58{fill:url(#SVGID_00000032613891720647436510000012522801392335230096_);}
	.st59{fill:url(#SVGID_00000019654521264861017660000017924104124373239478_);}
	.st60{fill:url(#SVGID_00000059297847967366953320000011344863465586314645_);}
	.st61{fill:url(#SVGID_00000109737341749681069000000005718830564444669868_);}
	.st62{fill:url(#SVGID_00000067214296386823431530000011840864262501199782_);}
	.st63{fill:url(#SVGID_00000116939096881041811220000018292884252714140308_);}
	.st64{fill:url(#SVGID_00000083790843768635743790000007594662482729794236_);}
	.st65{fill:url(#SVGID_00000104677308493551015600000004101367157068760236_);}
	.st66{fill:url(#SVGID_00000109024389851134452360000010477149188494106037_);}
	.st67{fill:url(#SVGID_00000163045842510311479900000000789570830256789926_);}
	.st68{fill:url(#SVGID_00000101816530103749139620000004878400762807373447_);}
	.st69{fill:url(#SVGID_00000034792962653810559860000007211293179150221749_);}
	.st70{fill:url(#SVGID_00000105424677212124288590000018342634232966675368_);}
	.st71{fill:url(#SVGID_00000114055436793627626260000003970371460878936198_);}
	.st72{fill:url(#SVGID_00000131338140177858539090000013411552033110933637_);}
	.st73{fill:url(#SVGID_00000095299378636931886660000002157340484433363111_);}
	.st74{fill:url(#SVGID_00000091736934023533067750000004296066185814807472_);}
	.st75{fill:url(#SVGID_00000062182375213651303260000009315636847761131942_);}
	.st76{fill:url(#SVGID_00000029036049914574659810000017931410147071191183_);}
	.st77{fill:url(#SVGID_00000126288580982536519310000000734091285889735318_);}
	.st78{fill:url(#SVGID_00000013909510898426731350000006269864438629082299_);}
	.st79{fill:url(#SVGID_00000150067255968216221660000007293051798329093300_);}
	.st80{fill:url(#SVGID_00000040549218129445990140000004880644108940223935_);}
	.st81{fill:url(#SVGID_00000072982097123140796800000003017081794446851209_);}
	.st82{fill:url(#SVGID_00000126312299951188275830000010755654582738042286_);}
	.st83{fill:url(#SVGID_00000018946885971667020230000005331399455840131470_);}
	.st84{fill:url(#SVGID_00000114032593147225432430000007822436043546300073_);}
	.st85{fill:url(#SVGID_00000182504029185856020720000008446185960749086083_);}
	.st86{fill:url(#SVGID_00000013875496578507051860000004087795970894304407_);}
	.st87{fill:url(#SVGID_00000009591295990155735170000016033847607003296189_);}
	.st88{fill:url(#SVGID_00000183207526022184590700000015421214524942265752_);}
	.st89{fill:url(#SVGID_00000132799472488248966010000016055674875022575534_);}
	.st90{fill:url(#SVGID_00000114787680152660627520000001402786127357876877_);}
	.st91{fill:url(#SVGID_00000143600375825102473610000007239435804634811272_);}
	.st92{fill:url(#SVGID_00000049919087486878386840000010855914354638409400_);}
	.st93{fill:url(#SVGID_00000160166423677466099110000012782945215512095666_);}
	.st94{fill:url(#SVGID_00000003078645513456702490000009478723631756981177_);}
	.st95{fill:url(#SVGID_00000144319816187155421630000006001346438700727433_);}
	.st96{fill:url(#SVGID_00000147185208349931095710000002051070897669463730_);}
	.st97{fill:url(#SVGID_00000138543558487604046570000003964973528311838352_);}
	.st98{fill:url(#SVGID_00000096769253931287883450000012667201504011025826_);}
	.st99{fill:url(#SVGID_00000143582885524991865230000016886085992768753310_);}
	.st100{fill:url(#SVGID_00000086671312528437347600000010044580318943732136_);}
	.st101{fill:url(#SVGID_00000023271245267232880590000008582289008368405424_);}
	.st102{fill:url(#SVGID_00000113332687567078332440000002510541973416642971_);}
	.st103{fill:url(#SVGID_00000135648792474353497390000009192697263122490805_);}
	.st104{fill:url(#SVGID_00000010292432295425498930000009966419885217017749_);}
	.st105{fill:url(#SVGID_00000066493089479319495820000002765248254543874213_);}
	.st106{fill:url(#SVGID_00000159456309336921046830000017533779932698824619_);}
	.st107{fill:url(#SVGID_00000016772256741446952000000017096925598432412337_);}
	.st108{fill:url(#SVGID_00000117647635447058974890000006409656231618964144_);}
	.st109{fill:url(#SVGID_00000155111137288761371970000001363509606944263815_);}
	.st110{fill:url(#SVGID_00000023239641309575909380000001276751857134618754_);}
	.st111{fill:url(#SVGID_00000163039712939510308090000000306303931923200675_);}
	.st112{fill:url(#SVGID_00000010997705840164181320000017119616548983079328_);}
	.st113{fill:url(#SVGID_00000059291202541887515060000003221218110097834656_);}
	.st114{fill:url(#SVGID_00000097488548665060863090000009893959576787756703_);}
	.st115{fill:url(#SVGID_00000000187121099526887430000018028581153738793601_);}
	.st116{fill:url(#SVGID_00000013154494997651095300000001474719211253672850_);}
	.st117{fill:url(#SVGID_00000141451487602994468690000005521655701498742441_);}
	.st118{fill:url(#SVGID_00000083052840224122952770000015021221250166335124_);}
	.st119{fill:url(#SVGID_00000086666163959207929870000006533894514162976656_);}
	.st120{fill:url(#SVGID_00000152949303907753430350000018114503439151699871_);}
	.st121{fill:url(#SVGID_00000078723705374959055220000000594948716237345724_);}
	.st122{fill:url(#SVGID_00000169552348590908319550000003485799108879251116_);}
	.st123{fill:url(#SVGID_00000047760465376392542390000018332072252874759078_);}
	.st124{fill:url(#SVGID_00000096746412037154133530000016794384019179175336_);}
	.st125{fill:url(#SVGID_00000160913352427028626850000018406556238653504902_);}
	.st126{fill:url(#SVGID_00000097493052942378787720000007172563333586395324_);}
	.st127{fill:url(#SVGID_00000017516926846510360840000011618656748638336415_);}
	.st128{fill:url(#SVGID_00000100349690296517518550000007639365661490442166_);}
	.st129{fill:url(#SVGID_00000168795857622143197280000012353579422935357091_);}
	.st130{fill:url(#SVGID_00000089542215300024061180000006292964351181957293_);}
	.st131{fill:url(#SVGID_00000003092571707514842660000003619224438053009305_);}
	.st132{fill:url(#SVGID_00000114780817831757843650000008260047805962925747_);}
	.st133{fill:url(#SVGID_00000025443043070979288490000000938009933707687607_);}
	.st134{fill:url(#SVGID_00000096778460302340041590000006751326530301716886_);}
	.st135{fill:url(#SVGID_00000011033635121193581260000005486762906606678206_);}
	.st136{fill:url(#SVGID_00000127035556938064277100000002499092836460578986_);}
	.st137{fill:url(#SVGID_00000004534421309426586960000001329765220891074975_);}
	.st138{fill:url(#SVGID_00000157294458279351120540000015969535664608373163_);}
	.st139{fill:url(#SVGID_00000034059228448793932610000002920461135315635614_);}
	.st140{fill:url(#SVGID_00000129177299840639812810000005994042582463282871_);}
	.st141{fill:url(#SVGID_00000085243848794577435060000017260193610089054393_);}
	.st142{fill:url(#SVGID_00000023981984638870920380000012290650747476666271_);}
	.st143{fill:url(#SVGID_00000002379509176751075340000015807401263938878654_);}
	.st144{fill:url(#SVGID_00000133487389356049690600000001611726449140428719_);}
	.st145{fill:url(#SVGID_00000132777929745043013320000003594333397269544371_);}
	.st146{fill:url(#SVGID_00000162338764604749782180000002690181988549740692_);}
	.st147{fill:url(#SVGID_00000075869557804172192320000008002348285831982763_);}
	.st148{fill:url(#SVGID_00000021114166145117398340000002867780504052129973_);}
	.st149{fill:url(#SVGID_00000040558246366127129410000017678410389072462783_);}
	.st150{fill:url(#SVGID_00000086683736710619893510000011625341115477586072_);}
	.st151{fill:url(#SVGID_00000078024706538263249460000014414102378830859438_);}
	.st152{fill:url(#SVGID_00000046319658345879674380000016298628373780709822_);}
	.st153{fill:url(#SVGID_00000023961137027233044430000006444432235512656026_);}
</style>
<rect class="st27" width="240" height="240"/>
<g>
	<g>
		<linearGradient id="SVGID_1_" gradientUnits="userSpaceOnUse" x1="120.042" y1="17.9789" x2="120.042" y2="282.9009">
			<stop  offset="0" style="stop-color:#70EDFF"/>
			<stop  offset="1" style="stop-color:#2671BC"/>
		</linearGradient>
		<path class="st4" d="M156.58,55.59c-3.81,3.76-5.76,8.69-5.84,13.64c-0.14,8.24-3.32,16.13-9.14,21.96l0,0
			c-5.84,5.84-13.75,8.98-22.01,9.14c-4.9,0.1-9.76,2.01-13.5,5.75c-3.74,3.74-5.65,8.6-5.75,13.5c-0.16,8.26-3.3,16.17-9.14,22.01
			l0,0c-5.83,5.83-13.72,9-21.96,9.14c-4.95,0.08-9.88,2.03-13.64,5.84c-7.33,7.42-7.47,19.75-0.31,27.33
			c7.65,8.09,20.41,8.23,28.23,0.41c3.74-3.74,5.65-8.6,5.75-13.5c0.16-8.26,3.3-16.17,9.14-22.01l0,0
			c5.84-5.84,13.76-8.98,22.01-9.14c4.9-0.1,9.76-2.01,13.5-5.75c3.74-3.74,5.65-8.6,5.75-13.5c0.16-8.26,3.3-16.17,9.14-22.01l0,0
			c5.84-5.84,13.76-8.98,22.01-9.14c4.9-0.1,9.76-2.01,13.5-5.75c7.82-7.82,7.68-20.58-0.41-28.23
			C176.33,48.12,164,48.27,156.58,55.59z"/>
		
			<linearGradient id="SVGID_00000067915674650841469110000004847129863050291641_" gradientUnits="userSpaceOnUse" x1="120.042" y1="17.9789" x2="120.042" y2="282.9009">
			<stop  offset="0" style="stop-color:#70EDFF"/>
			<stop  offset="1" style="stop-color:#2671BC"/>
		</linearGradient>
		<path style="fill:url(#SVGID_00000067915674650841469110000004847129863050291641_);" d="M184.49,156.58
			c-3.76-3.81-8.69-5.76-13.64-5.84c-8.24-0.14-16.13-3.32-21.96-9.14l0,0c-5.84-5.84-8.98-13.75-9.14-22.01
			c-0.1-4.9-2.01-9.76-5.75-13.5c-3.74-3.74-8.6-5.65-13.5-5.75c-8.26-0.16-16.17-3.3-22.01-9.14l0,0c-5.83-5.83-9-13.72-9.14-21.96
			c-0.08-4.95-2.03-9.88-5.84-13.64c-7.42-7.33-19.75-7.47-27.33-0.31c-8.09,7.65-8.23,20.41-0.41,28.23
			c3.74,3.74,8.6,5.65,13.5,5.75c8.26,0.16,16.17,3.3,22.01,9.14l0,0c5.84,5.84,8.98,13.76,9.14,22.01c0.1,4.9,2.01,9.76,5.75,13.5
			c3.74,3.74,8.6,5.65,13.5,5.75c8.26,0.16,16.17,3.3,22.01,9.14l0,0c5.84,5.84,8.98,13.76,9.14,22.01c0.1,4.9,2.01,9.76,5.75,13.5
			c7.82,7.82,20.58,7.68,28.23-0.41C191.96,176.33,191.82,164,184.49,156.58z"/>
		
			<linearGradient id="SVGID_00000074407054932502125660000005391828558540811926_" gradientUnits="userSpaceOnUse" x1="119.9997" y1="17.9789" x2="119.9997" y2="282.9009">
			<stop  offset="0" style="stop-color:#70EDFF"/>
			<stop  offset="1" style="stop-color:#2671BC"/>
		</linearGradient>
		<path style="fill:url(#SVGID_00000074407054932502125660000005391828558540811926_);" d="M120,39.36
			c10.87,0,19.68-8.81,19.68-19.68S130.87,0,120,0s-19.68,8.81-19.68,19.68S109.13,39.36,120,39.36z"/>
		
			<linearGradient id="SVGID_00000131362690234175007800000011379862971559112577_" gradientUnits="userSpaceOnUse" x1="119.9997" y1="17.9789" x2="119.9997" y2="282.9009">
			<stop  offset="0" style="stop-color:#70EDFF"/>
			<stop  offset="1" style="stop-color:#2671BC"/>
		</linearGradient>
		<path style="fill:url(#SVGID_00000131362690234175007800000011379862971559112577_);" d="M120,77.88c4.52,0,8.19-3.67,8.19-8.19
			c0-4.52-3.67-8.19-8.19-8.19s-8.19,3.67-8.19,8.19C111.81,74.21,115.48,77.88,120,77.88z"/>
		
			<linearGradient id="SVGID_00000072241674870166077440000017197181060293522593_" gradientUnits="userSpaceOnUse" x1="69.6845" y1="17.9789" x2="69.6845" y2="282.9009">
			<stop  offset="0" style="stop-color:#70EDFF"/>
			<stop  offset="1" style="stop-color:#2671BC"/>
		</linearGradient>
		<path style="fill:url(#SVGID_00000072241674870166077440000017197181060293522593_);" d="M77.88,120.08
			c0-4.52-3.67-8.19-8.19-8.19s-8.19,3.67-8.19,8.19c0,4.52,3.67,8.19,8.19,8.19S77.88,124.61,77.88,120.08z"/>
		
			<linearGradient id="SVGID_00000155111212703804548820000009877140913349774761_" gradientUnits="userSpaceOnUse" x1="120.0842" y1="17.9789" x2="120.0842" y2="282.9009">
			<stop  offset="0" style="stop-color:#70EDFF"/>
			<stop  offset="1" style="stop-color:#2671BC"/>
		</linearGradient>
		<path style="fill:url(#SVGID_00000155111212703804548820000009877140913349774761_);" d="M120.08,162.21
			c-4.52,0-8.19,3.67-8.19,8.19s3.67,8.19,8.19,8.19s8.19-3.67,8.19-8.19S124.61,162.21,120.08,162.21z"/>
		
			<linearGradient id="SVGID_00000003801882554827685210000000175016015113978762_" gradientUnits="userSpaceOnUse" x1="170.3994" y1="17.9789" x2="170.3994" y2="282.9009">
			<stop  offset="0" style="stop-color:#70EDFF"/>
			<stop  offset="1" style="stop-color:#2671BC"/>
		</linearGradient>
		<path style="fill:url(#SVGID_00000003801882554827685210000000175016015113978762_);" d="M162.21,120c0,4.52,3.67,8.19,8.19,8.19
			s8.19-3.67,8.19-8.19c0-4.52-3.67-8.19-8.19-8.19S162.21,115.48,162.21,120z"/>
		
			<linearGradient id="SVGID_00000019665832523752721020000016396962135750765194_" gradientUnits="userSpaceOnUse" x1="19.6798" y1="17.9789" x2="19.6798" y2="282.9009">
			<stop  offset="0" style="stop-color:#70EDFF"/>
			<stop  offset="1" style="stop-color:#2671BC"/>
		</linearGradient>
		<circle style="fill:url(#SVGID_00000019665832523752721020000016396962135750765194_);" cx="19.68" cy="120" r="19.68"/>
		
			<linearGradient id="SVGID_00000078740915003045680700000013817162407989772954_" gradientUnits="userSpaceOnUse" x1="119.9997" y1="17.9789" x2="119.9997" y2="282.9009">
			<stop  offset="0" style="stop-color:#70EDFF"/>
			<stop  offset="1" style="stop-color:#2671BC"/>
		</linearGradient>
		<path style="fill:url(#SVGID_00000078740915003045680700000013817162407989772954_);" d="M120,200.64
			c-10.87,0-19.68,8.81-19.68,19.68c0,10.87,8.81,19.68,19.68,19.68s19.68-8.81,19.68-19.68C139.68,209.45,130.87,200.64,120,200.64
			z"/>
		
			<linearGradient id="SVGID_00000154428371568360177350000010087911710899677059_" gradientUnits="userSpaceOnUse" x1="220.3199" y1="17.9789" x2="220.3199" y2="282.9009">
			<stop  offset="0" style="stop-color:#70EDFF"/>
			<stop  offset="1" style="stop-color:#2671BC"/>
		</linearGradient>
		<path style="fill:url(#SVGID_00000154428371568360177350000010087911710899677059_);" d="M220.32,100.32
			c-10.87,0-19.68,8.81-19.68,19.68c0,10.87,8.81,19.68,19.68,19.68c10.87,0,19.68-8.81,19.68-19.68
			C240,109.13,231.19,100.32,220.32,100.32z"/>
	</g>
</g>
</svg>
