<?xml version="1.0" encoding="utf-8"?>
<!-- Generator: Adobe Illustrator 27.1.0, SVG Export Plug-In . SVG Version: 6.00 Build 0)  -->
<svg version="1.1" id="Layer_1" xmlns="http://www.w3.org/2000/svg" xmlns:xlink="http://www.w3.org/1999/xlink" x="0px" y="0px"
	 viewBox="0 0 239.24 61.42" style="enable-background:new 0 0 239.24 61.42;" xml:space="preserve">
<style type="text/css">
	.st0{display:none;fill:#1A1F2C;}
	.st1{display:none;}
	.st2{display:inline;}
	.st3{display:inline;fill:none;stroke:#000000;stroke-width:6;stroke-miterlimit:10;}
	.st4{fill:url(#SVGID_1_);}
	.st5{fill:url(#SVGID_00000007399629808974029600000003375282540340808579_);}
	.st6{fill:url(#SVGID_00000096763868062562590680000015784827479071883191_);}
	.st7{fill:url(#SVGID_00000028318881776988318340000010162987763422708130_);}
	.st8{fill:url(#SVGID_00000171677616756514445080000002336713899480311486_);}
	.st9{fill:url(#SVGID_00000073688420498315674500000012288737289207650200_);}
	.st10{fill:url(#SVGID_00000046304559289133518320000010990991255569429913_);}
	.st11{fill:url(#SVGID_00000055672727036926088840000013264913070116872071_);}
	.st12{fill:url(#SVGID_00000112620264766863374470000007780094551365349559_);}
	.st13{fill:url(#SVGID_00000022518080880146390130000006552970695829845662_);}
	.st14{fill:url(#SVGID_00000072977522687508586900000010796573096574712501_);}
	.st15{fill:url(#SVGID_00000070095161827665507220000015144774041314079166_);}
	.st16{fill:url(#SVGID_00000044894016552024656440000003950465313981494204_);}
	.st17{fill:url(#SVGID_00000091701858564010987290000014586662802002790562_);}
	.st18{fill:url(#SVGID_00000153704755079070615110000012744081728694083773_);}
	.st19{fill:url(#SVGID_00000058565841627721758060000017476425583100789177_);}
	.st20{fill:url(#SVGID_00000063614275867125474270000007950875436540264340_);}
	.st21{fill:url(#SVGID_00000132781308171295007800000002897824782984824983_);}
	.st22{fill:url(#SVGID_00000116234685584709056370000006084149447475713159_);}
	.st23{fill:url(#SVGID_00000170958455738683635280000010725069683879035827_);}
	.st24{fill:url(#SVGID_00000116235460681606502620000008153309185560710078_);}
	.st25{fill:url(#SVGID_00000090987988884295309890000009472054391411103373_);}
	.st26{fill:url(#SVGID_00000053528130146498104190000016816761548322012572_);}
	.st27{fill:url(#SVGID_00000042696476967224593080000004759958848875416730_);}
	.st28{fill:url(#SVGID_00000124145353784422171490000015960304994819124664_);}
	.st29{fill:url(#SVGID_00000080195079352547786240000014666330665257715390_);}
	.st30{fill:url(#SVGID_00000020387267974971009200000016939840522404555918_);}
	.st31{fill:url(#SVGID_00000079477842173725836180000009543051956817672845_);}
	.st32{fill:url(#SVGID_00000054962154545578284020000005813930347803004047_);}
	.st33{fill:url(#SVGID_00000128445767497683393420000014652057316988646809_);}
	.st34{fill:url(#SVGID_00000133508009300659095260000015247867450000038564_);}
	.st35{fill:url(#SVGID_00000142151096886420841850000015260780371866792849_);}
	.st36{fill:url(#SVGID_00000108293291037235739220000007172038381344708543_);}
	.st37{fill:url(#SVGID_00000040555544323651177990000015573045721537281724_);}
	.st38{fill:url(#SVGID_00000034798358622538529520000016429425720662271666_);}
	.st39{fill:url(#SVGID_00000090255234767493911180000017210410078158653061_);}
	.st40{fill:url(#SVGID_00000020364284383249060900000015478013625148144062_);}
	.st41{fill:url(#SVGID_00000090979560029948518200000013052775223328352397_);}
	.st42{fill:url(#SVGID_00000133490506034562450010000013381245006175292593_);}
	.st43{fill:url(#SVGID_00000062175460382328418540000009443713036970464184_);}
	.st44{fill:url(#SVGID_00000171718054724744572620000007805016252161550746_);}
	.st45{fill:url(#SVGID_00000101094570826884545050000015146329537317372552_);}
	.st46{fill:url(#SVGID_00000153674844105139448450000007584452389960343712_);}
	.st47{fill:url(#SVGID_00000143575270463063643240000011016438808245690263_);}
	.st48{fill:url(#SVGID_00000103244511224623301090000011768854301134391223_);}
	.st49{fill:url(#SVGID_00000021094627043634150780000015290071810397915553_);}
	.st50{fill:url(#SVGID_00000005952983961874241120000010623262921498035628_);}
	.st51{fill:url(#SVGID_00000072247329530912077600000010929209315305453210_);}
	.st52{fill:url(#SVGID_00000100341174130211374360000015437322386313954493_);}
	.st53{fill:url(#SVGID_00000149381196731709240780000007683365743863882655_);}
	.st54{fill:url(#SVGID_00000149353759223768079260000000979692720228822157_);}
	.st55{fill:url(#SVGID_00000063635044376757416250000002921338662222827652_);}
	.st56{fill:url(#SVGID_00000150061716174237088550000003241953432033469350_);}
	.st57{fill:url(#SVGID_00000061453484257072471860000004871085018580112043_);}
	.st58{fill:url(#SVGID_00000085216078902116965270000000541911596446512060_);}
	.st59{fill:url(#SVGID_00000114764799495297728510000000389795941091989377_);}
	.st60{fill:url(#SVGID_00000011749856881095468580000007110880224652853666_);}
	.st61{fill:url(#SVGID_00000095329998190262572240000007185076062053706925_);}
	.st62{fill:url(#SVGID_00000096024275827267067030000008307406128683045000_);}
	.st63{fill:url(#SVGID_00000085968562013317231590000016230808190036513715_);}
	.st64{fill:url(#SVGID_00000171685783471439284700000000479054297997188028_);}
	.st65{fill:url(#SVGID_00000018195747202299326400000003624432935291348119_);}
	.st66{fill:url(#SVGID_00000070118463825035473430000018392271089880658332_);}
	.st67{fill:url(#SVGID_00000143611461044109834290000015987883890028280971_);}
	.st68{fill:url(#SVGID_00000063608810365709757910000007828247135133262511_);}
	.st69{fill:url(#SVGID_00000018946369036425497650000016740532337021139332_);}
	.st70{fill:url(#SVGID_00000121264578834679071300000016217379138862141097_);}
	.st71{fill:url(#SVGID_00000092416245979768400950000008336146470073045429_);}
	.st72{fill:url(#SVGID_00000098220637316562336340000001322781895535040388_);}
	.st73{fill:url(#SVGID_00000176019639748497849250000002102925818373292465_);}
	.st74{fill:url(#SVGID_00000153700551465186355740000006797143794221347718_);}
	.st75{fill:url(#SVGID_00000065784386715420495530000003037442819620099489_);}
	.st76{fill:url(#SVGID_00000009561144793898296790000003424575810361252751_);}
	.st77{fill:url(#SVGID_00000129923778498040210710000015686735231952780214_);}
	.st78{fill:url(#SVGID_00000000920034153993545290000010186751693433307822_);}
	.st79{fill:url(#SVGID_00000145750443430356708630000011931380369930887100_);}
	.st80{fill:url(#SVGID_00000071534293118695586740000011192150538995845299_);}
	.st81{fill:url(#SVGID_00000052796128025594803100000002830735680931909310_);}
	.st82{fill:url(#SVGID_00000029022506728528500450000001736399629828222375_);}
	.st83{fill:url(#SVGID_00000107555865900249920450000001446289924365284257_);}
	.st84{fill:url(#SVGID_00000139985179983422119050000007618195503298489475_);}
	.st85{fill:url(#SVGID_00000104681815129015986340000010316558652542431676_);}
	.st86{fill:url(#SVGID_00000077320532950869667560000013829272691640779933_);}
	.st87{fill:url(#SVGID_00000033338960813268422620000015641746913214510503_);}
	.st88{fill:url(#SVGID_00000041271546137898161500000006120892537041515692_);}
	.st89{fill:url(#SVGID_00000122682401537615360370000001978580291928442300_);}
	.st90{fill:url(#SVGID_00000116939710867374336550000007427135048844875150_);}
	.st91{fill:url(#SVGID_00000145051905472468009920000002402214139041799851_);}
	.st92{fill:url(#SVGID_00000122717588158861063670000016807941489645065887_);}
	.st93{fill:url(#SVGID_00000169530486974219987480000007931317953023557257_);}
	.st94{fill:url(#SVGID_00000065043820349656630500000000819572385881145779_);}
	.st95{fill:url(#SVGID_00000164506253233941905970000015528271600351486345_);}
	.st96{fill:url(#SVGID_00000096041557604138109470000009434264408109883565_);}
	.st97{fill:url(#SVGID_00000103963200456956321570000016431432970848731022_);}
	.st98{fill:url(#SVGID_00000103951351724476454310000004826940013877454231_);}
	.st99{fill:url(#SVGID_00000124148863694057459290000016143063600237448855_);}
	.st100{fill:url(#SVGID_00000032650637222927410390000000900894679659630742_);}
	.st101{fill:url(#SVGID_00000128452745060478065060000000848890764631499682_);}
	.st102{fill:url(#SVGID_00000036969761291569365360000009533013443779234197_);}
	.st103{fill:url(#SVGID_00000160192628394792673520000003737008104994795662_);}
	.st104{fill:url(#SVGID_00000032648215569599395070000002445600442932798363_);}
	.st105{fill:url(#SVGID_00000042017736011980683380000014422500527764505776_);}
	.st106{fill:url(#SVGID_00000116218126659700867670000015313888684306672293_);}
	.st107{fill:url(#SVGID_00000075843482180803350050000007358910554349744567_);}
	.st108{fill:url(#SVGID_00000103984972197073481170000011064885573397228685_);}
	.st109{fill:url(#SVGID_00000153671135599564691960000017302981686161166500_);}
	.st110{fill:url(#SVGID_00000122698120731592419950000001184112635846461581_);}
	.st111{fill:#1A1F2C;}
	.st112{fill:url(#SVGID_00000073716926522232238960000009231221929953103292_);}
	.st113{fill:url(#SVGID_00000167391649536198827040000003472184648951577523_);}
	.st114{fill:url(#SVGID_00000023251257503317750200000005099022603123120798_);}
	.st115{fill:url(#SVGID_00000017496120892751650770000017768729151957681317_);}
	.st116{fill:url(#SVGID_00000160186691462183051410000000773946825964982439_);}
	.st117{fill:url(#SVGID_00000013160329606844605680000011622584761170734993_);}
	.st118{fill:url(#SVGID_00000135654649907563084780000004524557475755880322_);}
	.st119{fill:url(#SVGID_00000071545883931400511310000013655682298828488346_);}
	.st120{fill:url(#SVGID_00000116200308453816818060000017658483271413674890_);}
	.st121{fill:url(#SVGID_00000122722747999450708460000001657759923180890258_);}
	.st122{fill:url(#SVGID_00000027583738104053903470000006000359627274917823_);}
	.st123{fill:url(#SVGID_00000143597443563514223530000015069484916572709047_);}
	.st124{fill:url(#SVGID_00000140721881444633088080000015679777469280151471_);}
	.st125{fill:url(#SVGID_00000173859442728488116180000008404123494611732156_);}
	.st126{fill:url(#SVGID_00000132792293033002847610000010930716243297952153_);}
	.st127{fill:url(#SVGID_00000161612058182315270800000009722302476236530355_);}
	.st128{fill:url(#SVGID_00000147925454414831682110000013604442497198305186_);}
	.st129{fill:url(#SVGID_00000183941025087842750730000003605919841756982428_);}
	.st130{fill:url(#SVGID_00000080891979830620192530000007711603799303861121_);}
	.st131{fill:url(#SVGID_00000091711935354281437320000013192984135437035437_);}
	.st132{fill:url(#SVGID_00000159461784033066408400000007747728900349233336_);}
	.st133{fill:url(#SVGID_00000106133639940076112860000016211343419470246845_);}
	.st134{fill:url(#SVGID_00000041990385204935924400000007161171706961519762_);}
	.st135{fill:url(#SVGID_00000147935260457540918770000001981235900947501474_);}
	.st136{fill:url(#SVGID_00000022551453701595905560000004030738389936446633_);}
	.st137{fill:url(#SVGID_00000048481476225784334780000004831395048846269835_);}
	.st138{fill:url(#SVGID_00000132052289721643569280000010221824607590833806_);}
	.st139{fill:url(#SVGID_00000135663684550950178470000008802492510719306151_);}
	.st140{fill:url(#SVGID_00000045615337564222008470000010412840209680870283_);}
	.st141{fill:url(#SVGID_00000159472027451154713780000009003336825788295821_);}
	.st142{fill:url(#SVGID_00000078732184348260820830000011186093827945473209_);}
	.st143{fill:url(#SVGID_00000176033053098353202810000002778617584024994198_);}
	.st144{fill:url(#SVGID_00000047024421482807643400000010805200639828698498_);}
	.st145{fill:url(#SVGID_00000080185863624990611090000004816189832414593720_);}
	.st146{fill:url(#SVGID_00000059284361535526429920000014550071249152114088_);}
	.st147{fill:url(#SVGID_00000115512553938934184750000009416689508144273845_);}
	.st148{fill:url(#SVGID_00000088111860909341415080000009813911808961218204_);}
	.st149{fill:url(#SVGID_00000141435313260712221330000014239907024235840411_);}
	.st150{fill:url(#SVGID_00000093870398929282117070000018307588360089843896_);}
	.st151{fill:url(#SVGID_00000165943462617276425300000005857697322451140257_);}
	.st152{fill:url(#SVGID_00000168800072449314979360000014359460577290872481_);}
	.st153{fill:url(#SVGID_00000034077093028239975190000014908959677719379090_);}
</style>
<g>
	<g>
		<linearGradient id="SVGID_1_" gradientUnits="userSpaceOnUse" x1="30.7192" y1="4.6009" x2="30.7192" y2="72.3956">
			<stop  offset="0" style="stop-color:#70EDFF"/>
			<stop  offset="1" style="stop-color:#2671BC"/>
		</linearGradient>
		<path class="st4" d="M40.07,14.23c-0.98,0.96-1.47,2.22-1.5,3.49c-0.04,2.11-0.85,4.13-2.34,5.62l0,0
			c-1.49,1.49-3.52,2.3-5.63,2.34c-1.25,0.02-2.5,0.51-3.45,1.47c-0.96,0.96-1.45,2.2-1.47,3.45c-0.04,2.11-0.85,4.14-2.34,5.63l0,0
			c-1.49,1.49-3.51,2.3-5.62,2.34c-1.27,0.02-2.53,0.52-3.49,1.49c-1.87,1.9-1.91,5.05-0.08,6.99c1.96,2.07,5.22,2.11,7.22,0.1
			c0.96-0.96,1.45-2.2,1.47-3.45c0.04-2.11,0.85-4.14,2.34-5.63l0,0c1.49-1.49,3.52-2.3,5.63-2.34c1.25-0.02,2.5-0.51,3.45-1.47
			c0.96-0.96,1.45-2.2,1.47-3.45c0.04-2.11,0.85-4.14,2.34-5.63l0,0c1.49-1.49,3.52-2.3,5.63-2.34c1.25-0.02,2.5-0.51,3.45-1.47
			c2-2,1.97-5.27-0.1-7.22C45.12,12.32,41.97,12.35,40.07,14.23z"/>
		
			<linearGradient id="SVGID_00000012449835704524582550000014066728968237007286_" gradientUnits="userSpaceOnUse" x1="30.7192" y1="4.6009" x2="30.7192" y2="72.3956">
			<stop  offset="0" style="stop-color:#70EDFF"/>
			<stop  offset="1" style="stop-color:#2671BC"/>
		</linearGradient>
		<path style="fill:url(#SVGID_00000012449835704524582550000014066728968237007286_);" d="M47.21,40.07
			c-0.96-0.98-2.22-1.47-3.49-1.5c-2.11-0.04-4.13-0.85-5.62-2.34l0,0c-1.49-1.49-2.3-3.52-2.34-5.63c-0.02-1.25-0.51-2.5-1.47-3.45
			c-0.96-0.96-2.2-1.45-3.45-1.47c-2.11-0.04-4.14-0.85-5.63-2.34l0,0c-1.49-1.49-2.3-3.51-2.34-5.62
			c-0.02-1.27-0.52-2.53-1.49-3.49c-1.9-1.87-5.05-1.91-6.99-0.08c-2.07,1.96-2.11,5.22-0.1,7.22c0.96,0.96,2.2,1.45,3.45,1.47
			c2.11,0.04,4.14,0.85,5.63,2.34l0,0c1.49,1.49,2.3,3.52,2.34,5.63c0.02,1.25,0.51,2.5,1.47,3.45c0.96,0.96,2.2,1.45,3.45,1.47
			c2.11,0.04,4.14,0.85,5.63,2.34l0,0c1.49,1.49,2.3,3.52,2.34,5.63c0.02,1.25,0.51,2.5,1.47,3.45c2,2,5.27,1.97,7.22-0.1
			C49.12,45.12,49.09,41.97,47.21,40.07z"/>
		
			<linearGradient id="SVGID_00000010287701997407627520000001962343630628942234_" gradientUnits="userSpaceOnUse" x1="30.7084" y1="4.6009" x2="30.7084" y2="72.3956">
			<stop  offset="0" style="stop-color:#70EDFF"/>
			<stop  offset="1" style="stop-color:#2671BC"/>
		</linearGradient>
		<path style="fill:url(#SVGID_00000010287701997407627520000001962343630628942234_);" d="M30.71,10.07c2.78,0,5.04-2.25,5.04-5.04
			S33.49,0,30.71,0s-5.04,2.25-5.04,5.04S27.93,10.07,30.71,10.07z"/>
		
			<linearGradient id="SVGID_00000124143681035579406360000005498207762132354688_" gradientUnits="userSpaceOnUse" x1="30.7084" y1="4.6009" x2="30.7084" y2="72.3956">
			<stop  offset="0" style="stop-color:#70EDFF"/>
			<stop  offset="1" style="stop-color:#2671BC"/>
		</linearGradient>
		<path style="fill:url(#SVGID_00000124143681035579406360000005498207762132354688_);" d="M30.71,19.93c1.16,0,2.1-0.94,2.1-2.1
			c0-1.16-0.94-2.1-2.1-2.1c-1.16,0-2.1,0.94-2.1,2.1C28.61,18.99,29.55,19.93,30.71,19.93z"/>
		
			<linearGradient id="SVGID_00000054245214743278022360000010777498297811243409_" gradientUnits="userSpaceOnUse" x1="17.8326" y1="4.6009" x2="17.8326" y2="72.3956">
			<stop  offset="0" style="stop-color:#70EDFF"/>
			<stop  offset="1" style="stop-color:#2671BC"/>
		</linearGradient>
		<path style="fill:url(#SVGID_00000054245214743278022360000010777498297811243409_);" d="M19.93,30.73c0-1.16-0.94-2.1-2.1-2.1
			c-1.16,0-2.1,0.94-2.1,2.1c0,1.16,0.94,2.1,2.1,2.1C18.99,32.83,19.93,31.89,19.93,30.73z"/>
		
			<linearGradient id="SVGID_00000063633143062638877750000000989633271523471500_" gradientUnits="userSpaceOnUse" x1="30.7301" y1="4.6009" x2="30.7301" y2="72.3956">
			<stop  offset="0" style="stop-color:#70EDFF"/>
			<stop  offset="1" style="stop-color:#2671BC"/>
		</linearGradient>
		<path style="fill:url(#SVGID_00000063633143062638877750000000989633271523471500_);" d="M30.73,41.51c-1.16,0-2.1,0.94-2.1,2.1
			s0.94,2.1,2.1,2.1c1.16,0,2.1-0.94,2.1-2.1S31.89,41.51,30.73,41.51z"/>
		
			<linearGradient id="SVGID_00000107562589344021104880000004848515583683327932_" gradientUnits="userSpaceOnUse" x1="43.6059" y1="4.6009" x2="43.6059" y2="72.3956">
			<stop  offset="0" style="stop-color:#70EDFF"/>
			<stop  offset="1" style="stop-color:#2671BC"/>
		</linearGradient>
		<path style="fill:url(#SVGID_00000107562589344021104880000004848515583683327932_);" d="M41.51,30.71c0,1.16,0.94,2.1,2.1,2.1
			s2.1-0.94,2.1-2.1c0-1.16-0.94-2.1-2.1-2.1S41.51,29.55,41.51,30.71z"/>
		
			<linearGradient id="SVGID_00000072984605722965608720000001549926512224209560_" gradientUnits="userSpaceOnUse" x1="5.0362" y1="4.6009" x2="5.0362" y2="72.3956">
			<stop  offset="0" style="stop-color:#70EDFF"/>
			<stop  offset="1" style="stop-color:#2671BC"/>
		</linearGradient>
		<circle style="fill:url(#SVGID_00000072984605722965608720000001549926512224209560_);" cx="5.04" cy="30.71" r="5.04"/>
		
			<linearGradient id="SVGID_00000181794566731093691650000017194410566466196925_" gradientUnits="userSpaceOnUse" x1="30.7084" y1="4.6009" x2="30.7084" y2="72.3956">
			<stop  offset="0" style="stop-color:#70EDFF"/>
			<stop  offset="1" style="stop-color:#2671BC"/>
		</linearGradient>
		<path style="fill:url(#SVGID_00000181794566731093691650000017194410566466196925_);" d="M30.71,51.34
			c-2.78,0-5.04,2.25-5.04,5.04c0,2.78,2.25,5.04,5.04,5.04s5.04-2.25,5.04-5.04C35.74,53.6,33.49,51.34,30.71,51.34z"/>
		
			<linearGradient id="SVGID_00000067940213811487586200000004596013980996446387_" gradientUnits="userSpaceOnUse" x1="56.3808" y1="4.6009" x2="56.3808" y2="72.3956">
			<stop  offset="0" style="stop-color:#70EDFF"/>
			<stop  offset="1" style="stop-color:#2671BC"/>
		</linearGradient>
		<path style="fill:url(#SVGID_00000067940213811487586200000004596013980996446387_);" d="M56.38,25.67
			c-2.78,0-5.04,2.25-5.04,5.04c0,2.78,2.25,5.04,5.04,5.04c2.78,0,5.04-2.25,5.04-5.04C61.42,27.93,59.16,25.67,56.38,25.67z"/>
	</g>
	<g>
		<g>
			
				<linearGradient id="SVGID_00000076591197112535238800000015263450348306316977_" gradientUnits="userSpaceOnUse" x1="81.1615" y1="4.6009" x2="81.1615" y2="72.3956">
				<stop  offset="0" style="stop-color:#70EDFF"/>
				<stop  offset="1" style="stop-color:#2671BC"/>
			</linearGradient>
			<path style="fill:url(#SVGID_00000076591197112535238800000015263450348306316977_);" d="M85.15,41.18l-3.97-6.21l-3.97,6.21
				h-4.37l6.21-9.53l-5.85-9.19h4.37l3.6,5.9l3.58-5.9h4.34l-5.76,9.19l6.16,9.53H85.15z"/>
			
				<linearGradient id="SVGID_00000090295691951901394190000011225745137866111878_" gradientUnits="userSpaceOnUse" x1="93.7043" y1="4.6009" x2="93.7043" y2="72.3956">
				<stop  offset="0" style="stop-color:#70EDFF"/>
				<stop  offset="1" style="stop-color:#2671BC"/>
			</linearGradient>
			<path style="fill:url(#SVGID_00000090295691951901394190000011225745137866111878_);" d="M91.79,19.9h3.83v21.28h-3.83V19.9z"/>
			
				<linearGradient id="SVGID_00000156583412750534810200000009418343433918013593_" gradientUnits="userSpaceOnUse" x1="105.6079" y1="4.6009" x2="105.6079" y2="72.3956">
				<stop  offset="0" style="stop-color:#70EDFF"/>
				<stop  offset="1" style="stop-color:#2671BC"/>
			</linearGradient>
			<path style="fill:url(#SVGID_00000156583412750534810200000009418343433918013593_);" d="M102.49,35.45
				c0.45,1.79,1.9,2.78,3.94,2.78c1.39,0,2.7-0.48,3.92-1.42l1.59,2.61c-1.67,1.39-3.55,2.1-5.62,2.1
				c-4.34,0.09-7.78-3.29-7.69-7.35c-0.09-4.06,3.29-7.43,7.35-7.35c3.89,0,6.61,2.87,6.61,6.53c0,0.68-0.09,1.39-0.26,2.1H102.49z
				 M108.87,32.75c-0.03-1.73-1.36-2.84-3.04-2.84c-1.62,0-2.92,1.11-3.35,2.84H108.87z"/>
			
				<linearGradient id="SVGID_00000070106217360209474490000004212753275535256490_" gradientUnits="userSpaceOnUse" x1="121.0317" y1="4.6009" x2="121.0317" y2="72.3956">
				<stop  offset="0" style="stop-color:#70EDFF"/>
				<stop  offset="1" style="stop-color:#2671BC"/>
			</linearGradient>
			<path style="fill:url(#SVGID_00000070106217360209474490000004212753275535256490_);" d="M128.62,27.13l-6.95,14.39h-1.28
				l-6.95-14.39h4.03l3.55,7.95l3.55-7.95H128.62z"/>
			
				<linearGradient id="SVGID_00000031196898474770247950000015785350601314505375_" gradientUnits="userSpaceOnUse" x1="135.7454" y1="4.6009" x2="135.7454" y2="72.3956">
				<stop  offset="0" style="stop-color:#70EDFF"/>
				<stop  offset="1" style="stop-color:#2671BC"/>
			</linearGradient>
			<path style="fill:url(#SVGID_00000031196898474770247950000015785350601314505375_);" d="M142.07,41.18h-3.52v-1.36
				c-1.02,1.05-2.5,1.7-4.28,1.7c-2.98,0-4.85-1.73-4.85-4.2c0-2.53,2.04-4.09,5.31-4.09h3.52v-0.62c0-1.56-0.91-2.47-2.61-2.47
				c-1.45,0-2.47,0.6-3.72,1.93l-1.99-2.36c1.62-1.93,3.66-2.89,6.13-2.89c3.66,0,6.02,2.13,6.02,6.02V41.18z M138.24,35.76h-3.01
				c-1.25,0-1.96,0.48-1.96,1.42c0,0.94,0.79,1.53,2.01,1.53c1.67,0,2.95-1.16,2.95-2.78V35.76z"/>
			
				<linearGradient id="SVGID_00000029734542131677896530000010115103878930514084_" gradientUnits="userSpaceOnUse" x1="149.551" y1="4.6009" x2="149.551" y2="72.3956">
				<stop  offset="0" style="stop-color:#70EDFF"/>
				<stop  offset="1" style="stop-color:#2671BC"/>
			</linearGradient>
			<path style="fill:url(#SVGID_00000029734542131677896530000010115103878930514084_);" d="M154.79,41.18
				c-0.91,0.23-1.79,0.34-2.64,0.34c-3.55,0-5.62-1.76-5.62-5.28v-5.87h-2.21v-3.24h2.21v-3.55h3.83v3.55h3.97v3.24h-3.97v5.53
				c0,1.59,0.79,2.19,2.61,2.19c0.23,0,0.82-0.03,1.82-0.11V41.18z"/>
			
				<linearGradient id="SVGID_00000034794336902835399300000003106947064067326341_" gradientUnits="userSpaceOnUse" x1="163.4692" y1="4.6009" x2="163.4692" y2="72.3956">
				<stop  offset="0" style="stop-color:#70EDFF"/>
				<stop  offset="1" style="stop-color:#2671BC"/>
			</linearGradient>
			<path style="fill:url(#SVGID_00000034794336902835399300000003106947064067326341_);" d="M160.35,35.45
				c0.45,1.79,1.9,2.78,3.94,2.78c1.39,0,2.7-0.48,3.92-1.42l1.59,2.61c-1.67,1.39-3.55,2.1-5.62,2.1
				c-4.34,0.09-7.78-3.29-7.69-7.35c-0.09-4.06,3.29-7.43,7.35-7.35c3.89,0,6.61,2.87,6.61,6.53c0,0.68-0.08,1.39-0.26,2.1H160.35z
				 M166.73,32.75c-0.03-1.73-1.36-2.84-3.04-2.84c-1.62,0-2.92,1.11-3.35,2.84H166.73z"/>
			
				<linearGradient id="SVGID_00000180357523596316527860000001588317859065087927_" gradientUnits="userSpaceOnUse" x1="186.3706" y1="4.6009" x2="186.3706" y2="72.3956">
				<stop  offset="0" style="stop-color:#70EDFF"/>
				<stop  offset="1" style="stop-color:#2671BC"/>
			</linearGradient>
			<path style="fill:url(#SVGID_00000180357523596316527860000001588317859065087927_);" d="M184.44,25.91h-5.99v-3.46h15.83v3.46
				h-6.02v15.27h-3.83V25.91z"/>
			
				<linearGradient id="SVGID_00000174565356720358158770000009556587888806508162_" gradientUnits="userSpaceOnUse" x1="200.7004" y1="4.6009" x2="200.7004" y2="72.3956">
				<stop  offset="0" style="stop-color:#70EDFF"/>
				<stop  offset="1" style="stop-color:#2671BC"/>
			</linearGradient>
			<path style="fill:url(#SVGID_00000174565356720358158770000009556587888806508162_);" d="M197.58,35.45
				c0.45,1.79,1.9,2.78,3.94,2.78c1.39,0,2.7-0.48,3.92-1.42l1.59,2.61c-1.67,1.39-3.55,2.1-5.62,2.1
				c-4.34,0.09-7.78-3.29-7.69-7.35c-0.09-4.06,3.29-7.43,7.35-7.35c3.89,0,6.61,2.87,6.61,6.53c0,0.68-0.09,1.39-0.26,2.1H197.58z
				 M203.96,32.75c-0.03-1.73-1.36-2.84-3.04-2.84c-1.62,0-2.92,1.11-3.35,2.84H203.96z"/>
			
				<linearGradient id="SVGID_00000061439063778312912200000007426099635047680677_" gradientUnits="userSpaceOnUse" x1="216.6772" y1="4.6009" x2="216.6772" y2="72.3956">
				<stop  offset="0" style="stop-color:#70EDFF"/>
				<stop  offset="1" style="stop-color:#2671BC"/>
			</linearGradient>
			<path style="fill:url(#SVGID_00000061439063778312912200000007426099635047680677_);" d="M217.39,26.82
				c2.75,0,4.88,1.31,6.1,3.46l-2.67,2.07c-0.88-1.28-1.9-2.04-3.38-2.04c-2.16,0-3.69,1.65-3.69,3.83c0,2.24,1.53,3.86,3.69,3.86
				c1.45,0,2.47-0.74,3.38-2.01l2.67,2.04c-1.22,2.16-3.38,3.49-6.1,3.49c-4.11,0.09-7.58-3.32-7.52-7.38
				C209.87,30.03,213.22,26.82,217.39,26.82z"/>
			
				<linearGradient id="SVGID_00000134957799133266632860000004327642751435608196_" gradientUnits="userSpaceOnUse" x1="232.7818" y1="4.6009" x2="232.7818" y2="72.3956">
				<stop  offset="0" style="stop-color:#70EDFF"/>
				<stop  offset="1" style="stop-color:#2671BC"/>
			</linearGradient>
			<path style="fill:url(#SVGID_00000134957799133266632860000004327642751435608196_);" d="M239.24,41.18h-3.8v-8.17
				c0-1.62-1.05-2.72-2.61-2.72c-1.56,0-2.67,1.11-2.67,2.72v8.17h-3.83V19.9h3.83v8.43c0.94-0.94,2.3-1.5,3.86-1.5
				c3.18,0,5.22,2.24,5.22,5.65V41.18z"/>
		</g>
	</g>
</g>
</svg>
