 <svg version="1.1" id="Layer_1" xmlns="http://www.w3.org/2000/svg" xmlns:xlink="http://www.w3.org/1999/xlink" x="0px" y="0px" viewBox="0 0 240 240" style="enable-background:new 0 0 240 240;" xml:space="preserve">
<style type="text/css"> .st0{fill:#1A1F2C;} .st1{} .st2{display:inline;} .st3{display:inline;fill:none;stroke:#000000;stroke-width:6;stroke-miterlimit:10;} .st4{fill:url(#SVGID_1_);} .st5{fill:url(#SVGID_00000034770668979053655990000005797580214199547802_);} .st6{fill:url(#SVGID_00000098937116236813188710000011931767803262688405_);} .st7{fill:url(#SVGID_00000098927805003230963810000006640952850142088590_);} .st8{fill:url(#SVGID_00000118370922985035362810000014519080047479114170_);} .st9{fill:url(#SVGID_00000057827234131139359510000004169540656391230372_);} .st10{fill:url(#SVGID_00000039119029602936510190000012140469145736793764_);} .st11{fill:url(#SVGID_00000151503447700806561060000015557267374846815915_);} .st12{fill:url(#SVGID_00000098923331820868419540000015367656678656571834_);} .st13{fill:url(#SVGID_00000122683197592116161730000016573988440597039249_);} .st14{fill:url(#SVGID_00000075877677156815873020000009525547894051338889_);} .st15{fill:url(#SVGID_00000096738286810668011230000006400058981427150011_);} .st16{fill:url(#SVGID_00000174572737050928427830000011824997570744126348_);} .st17{fill:url(#SVGID_00000020389876953115591980000014998460638342681999_);} .st18{fill:url(#SVGID_00000134935419603654931720000014086226096124406709_);} .st19{fill:url(#SVGID_00000022537320308638662340000007886043856463872136_);} .st20{fill:url(#SVGID_00000026854398829137635480000017566446843975810738_);} .st21{fill:url(#SVGID_00000147934395496408886730000005211357760332163509_);} .st22{fill:url(#SVGID_00000113332738614866407720000011592846167152848814_);} .st23{fill:url(#SVGID_00000085238146623398072560000003466146724399363495_);} .st24{fill:url(#SVGID_00000138564863757741658760000002190210935342585018_);} .st25{fill:url(#SVGID_00000118394067494069651070000018015292034938057905_);} .st26{fill:url(#SVGID_00000054944707656047720420000013002453304205902219_);} .st27{fill:#1A1F2C;} .st28{fill:url(#SVGID_00000154404538300527962370000008538565277675277715_);} .st29{fill:url(#SVGID_00000152958501629038917510000013178879102428763312_);} .st30{fill:url(#SVGID_00000041982533251529790970000003089180925295643295_);} .st31{fill:url(#SVGID_00000150096023410277240860000007270832852676227726_);} .st32{fill:url(#SVGID_00000132808690862985449390000003271565729499645104_);} .st33{fill:url(#SVGID_00000102523028325981147000000017328705978290780093_);} .st34{fill:url(#SVGID_00000124130805341018320650000015050943076140008321_);} .st35{fill:url(#SVGID_00000166640134348196885700000002037777396268616126_);} .st36{fill:url(#SVGID_00000147939843550665864130000015388683758219170234_);} .st37{fill:url(#SVGID_00000037679342335126833920000003030388494073244575_);} .st38{fill:url(#SVGID_00000023272023063153142170000017231126309493789057_);} .st39{fill:url(#SVGID_00000119833157889772670640000001383651326998311814_);} .st40{fill:url(#SVGID_00000089550863061017008500000011434768030866349184_);} .st41{fill:url(#SVGID_00000079484155449345732190000003168798566710741131_);} .st42{fill:url(#SVGID_00000132793932232938563060000006549281726382328982_);} .st43{fill:url(#SVGID_00000123437966170729864120000016600161867292033690_);} .st44{fill:url(#SVGID_00000101795671497505970830000014598580904877630341_);} .st45{fill:url(#SVGID_00000137853978153178567400000012320390373470836142_);} .st46{fill:url(#SVGID_00000095336067741500139730000005592117671897259430_);} .st47{fill:url(#SVGID_00000057119447229461761900000006669044870173051268_);} .st48{fill:url(#SVGID_00000034788103499146447020000018211568157815311549_);} .st49{fill:url(#SVGID_00000142873686627747524130000005591782489358571408_);} .st50{fill:url(#SVGID_00000111161832229271098660000003349869002980601017_);} .st51{fill:url(#SVGID_00000168115103350014513940000013894931242162902964_);} .st52{fill:url(#SVGID_00000176016317551200496660000002798232552168972177_);} .st53{fill:url(#SVGID_00000052096697381680750370000001305943857745332130_);} .st54{fill:url(#SVGID_00000146464589015495233520000011247746958777547159_);} .st55{fill:url(#SVGID_00000014606760389902739600000001975589560514397064_);} .st56{fill:url(#SVGID_00000054247950776521350670000014927968547025259909_);} .st57{fill:url(#SVGID_00000024718867159084162230000013988166313730948492_);} .st58{fill:url(#SVGID_00000074440511990738399070000001946455572613319060_);} .st59{fill:url(#SVGID_00000012456596318445815320000005195682684051245198_);} .st60{fill:url(#SVGID_00000008844466285527992540000016039991202284279170_);} .st61{fill:url(#SVGID_00000086651623654145613040000008752412046229362102_);} .st62{fill:url(#SVGID_00000087386286095140390270000005112754426086858672_);} .st63{fill:url(#SVGID_00000183948667195684994130000010317490901734620306_);} .st64{fill:url(#SVGID_00000063611211381649325030000005022987861992184506_);} .st65{fill:url(#SVGID_00000046324671606149255260000014418067075613163421_);} .st66{fill:url(#SVGID_00000160178649990071438590000010875087288580881055_);} .st67{fill:url(#SVGID_00000038411974496858082680000003914951214409436092_);} .st68{fill:url(#SVGID_00000158747339476409869920000009575346931943502978_);} .st69{fill:url(#SVGID_00000137818252872440719370000009912318464992145848_);} .st70{fill:url(#SVGID_00000049214830326033388820000007903583919044059323_);} .st71{fill:url(#SVGID_00000011019205802468112780000008601233742209806472_);} .st72{fill:url(#SVGID_00000176002610268272214050000016165944804444055730_);} .st73{fill:url(#SVGID_00000061462305296532697940000017178311278715011760_);} .st74{fill:url(#SVGID_00000070832451376433543200000008744481449154679219_);} .st75{fill:url(#SVGID_00000070829891810418927630000007462427328761192580_);} .st76{fill:url(#SVGID_00000160884931441069802240000002408653671758425789_);} .st77{fill:url(#SVGID_00000101104306287514042070000017069388839437970850_);} .st78{fill:url(#SVGID_00000160900255170783728760000006754556014861564065_);} .st79{fill:url(#SVGID_00000133488071565901986580000018083241706557582270_);} .st80{fill:url(#SVGID_00000121983719566401133740000016970564469554740383_);} .st81{fill:url(#SVGID_00000108998882675773642350000007731381882773601194_);} .st82{fill:url(#SVGID_00000004505431230162333020000010294265624001033651_);} .st83{fill:url(#SVGID_00000043441152007620083650000018171623620063386754_);} .st84{fill:url(#SVGID_00000106857093737900128450000015449013547954781846_);} .st85{fill:url(#SVGID_00000114761116744269239600000010397718590138186938_);} .st86{fill:url(#SVGID_00000029046728777835469500000009638159184577465219_);} .st87{fill:url(#SVGID_00000103954157346313481570000003861916057474032037_);} .st88{fill:url(#SVGID_00000150103218919208997410000001650476955736640430_);} .st89{fill:url(#SVGID_00000022532589439583044830000003842819249153113530_);} .st90{fill:url(#SVGID_00000176756949125242193530000004646179196998461320_);} .st91{fill:url(#SVGID_00000156587963260982237090000011675760873022437285_);} .st92{fill:url(#SVGID_00000137839382063290369120000003825709783942001286_);} .st93{fill:url(#SVGID_00000176025914059116324340000005996041234041157011_);} .st94{fill:url(#SVGID_00000159470041533937214960000002047783957836896906_);} .st95{fill:url(#SVGID_00000076570424626467531160000003604805360560721080_);} .st96{fill:url(#SVGID_00000113335317709920759150000012026265541201867919_);} .st97{fill:url(#SVGID_00000032634978835390908210000006108890342744159901_);} .st98{fill:url(#SVGID_00000049219702892588261130000010067908010983979180_);} .st99{fill:url(#SVGID_00000029016752672600340740000005051460562157109677_);} .st100{fill:url(#SVGID_00000062181168894581017820000003700375914826936501_);} .st101{fill:url(#SVGID_00000072277364191499156270000007388096310281094037_);} .st102{fill:url(#SVGID_00000008868569862053957940000009427998711851324335_);} .st103{fill:url(#SVGID_00000104677919859780779820000001190488894900327606_);} .st104{fill:url(#SVGID_00000021807982065891619670000002295777868470505637_);} .st105{fill:url(#SVGID_00000024717750569565434500000002311262697196357770_);} .st106{fill:url(#SVGID_00000012430579865873560320000018108804113718261143_);} .st107{fill:url(#SVGID_00000160912812969320084610000009734701594807648444_);} .st108{fill:url(#SVGID_00000117665674052606291140000009182885982266614160_);} .st109{fill:url(#SVGID_00000047047607199954025330000012375016661584565915_);} .st110{fill:url(#SVGID_00000132788158129187676180000010696256425294895545_);} .st111{fill:url(#SVGID_00000121240502924191945840000009029036644327668881_);} .st112{fill:url(#SVGID_00000108293586181621133550000018175800776406536106_);} .st113{fill:url(#SVGID_00000103258374272795735550000014886329457796486335_);} .st114{fill:url(#SVGID_00000070111161099041302130000010595797114332162706_);} .st115{fill:url(#SVGID_00000067201269107488473360000015612093664932392083_);} .st116{fill:url(#SVGID_00000003069153257773508110000014064203699651847574_);} .st117{fill:url(#SVGID_00000074406196468867971230000005302239878558850980_);} .st118{fill:url(#SVGID_00000070808819182308591670000008704832817252857268_);} .st119{fill:url(#SVGID_00000000942105778852354580000002605878431465948336_);} .st120{fill:url(#SVGID_00000152965669066893808710000013462059692156430483_);} .st121{fill:url(#SVGID_00000073681399920701292640000007911538800041635488_);} .st122{fill:url(#SVGID_00000110459702845848381350000002776469714122904968_);} .st123{fill:url(#SVGID_00000012469529212592366510000014966450366155611018_);} .st124{fill:url(#SVGID_00000062914059960061990350000002921321706454649522_);} .st125{fill:url(#SVGID_00000166662359569640341170000006634372737709744795_);} .st126{fill:url(#SVGID_00000154394754488213355560000014937626449886048442_);} .st127{fill:url(#SVGID_00000125577427810875443940000009967863998659338922_);} .st128{fill:url(#SVGID_00000081628707803950165490000004886798912518203307_);} .st129{fill:url(#SVGID_00000116202984083119466130000017628152379931445130_);} .st130{fill:url(#SVGID_00000047021296281703871700000010147514404701667726_);} .st131{fill:url(#SVGID_00000138559657268367731540000011475362209812672167_);} .st132{fill:url(#SVGID_00000044859985674904297190000013348912388469177244_);} .st133{fill:url(#SVGID_00000042734413828352706330000005851235314458590086_);} .st134{fill:url(#SVGID_00000108999705162432115220000014052340251814319764_);} .st135{fill:url(#SVGID_00000180348059749006022220000018260375794101557632_);} .st136{fill:url(#SVGID_00000111188663280090970360000012100061955275936688_);} .st137{fill:url(#SVGID_00000067935119056306643710000006522844202239122604_);} .st138{fill:url(#SVGID_00000067933685658776356950000018023862123634823338_);} .st139{fill:url(#SVGID_00000087403581453216304390000013578786323833607595_);} .st140{fill:url(#SVGID_00000071540108773646729050000006484149916083132822_);} .st141{fill:url(#SVGID_00000074408836671812678610000000690292655376341946_);} .st142{fill:url(#SVGID_00000083075821087151498060000001447952864290152620_);} .st143{fill:url(#SVGID_00000005243022354564256090000008504871625085066151_);} .st144{fill:url(#SVGID_00000015353246721296090640000011815609691616983987_);} .st145{fill:url(#SVGID_00000070841429923787661310000008517354862007821233_);} .st146{fill:url(#SVGID_00000145039959048612300420000006465164250594637983_);} .st147{fill:url(#SVGID_00000030474476079794770670000001497022602039083177_);} .st148{fill:url(#SVGID_00000155866190901385868260000011683446272543828884_);} .st149{fill:url(#SVGID_00000147199681596244539710000012361547087266572202_);} .st150{fill:url(#SVGID_00000064321244263281946480000009257237095364691863_);} .st151{fill:url(#SVGID_00000090286417731097593410000011838517176134301334_);} .st152{fill:url(#SVGID_00000100381465505357746740000010026769545243559333_);} .st153{fill:url(#SVGID_00000179634491713751466510000004537751174354512008_);}
</style>
<rect class="st27" width="240" height="240"/>
<g> <g> <linearGradient id="SVGID_1_" gradientUnits="userSpaceOnUse" x1="30.8171" y1="93.8092" x2="30.8171" y2="161.8199"> <stop offset="0" style="stop-color:#70EDFF"/> <stop offset="1" style="stop-color:#2671BC"/> </linearGradient> <path class="st4" d="M40.2,103.46c-0.98,0.97-1.48,2.23-1.5,3.5c-0.04,2.12-0.85,4.14-2.35,5.64l0,0c-1.5,1.5-3.53,2.31-5.65,2.35 c-1.26,0.02-2.51,0.52-3.46,1.48c-0.96,0.96-1.45,2.21-1.48,3.46c-0.04,2.12-0.85,4.15-2.35,5.65l0,0 c-1.5,1.5-3.52,2.31-5.64,2.35c-1.27,0.02-2.54,0.52-3.5,1.5c-1.88,1.91-1.92,5.07-0.08,7.02c1.96,2.08,5.24,2.11,7.25,0.11 c0.96-0.96,1.45-2.21,1.48-3.46c0.04-2.12,0.85-4.15,2.35-5.65l0,0c1.5-1.5,3.53-2.31,5.65-2.35c1.26-0.02,2.51-0.52,3.46-1.48 c0.96-0.96,1.45-2.21,1.48-3.47c0.04-2.12,0.85-4.15,2.35-5.65l0,0c1.5-1.5,3.53-2.31,5.65-2.35c1.26-0.02,2.51-0.52,3.46-1.48 c2.01-2.01,1.97-5.28-0.1-7.25C45.27,101.55,42.1,101.58,40.2,103.46z"/> <linearGradient id="SVGID_00000113351116290407825840000006415331514591164055_" gradientUnits="userSpaceOnUse" x1="30.8171" y1="93.8092" x2="30.8171" y2="161.8199"> <stop offset="0" style="stop-color:#70EDFF"/> <stop offset="1" style="stop-color:#2671BC"/> </linearGradient> <path style="fill:url(#SVGID_00000113351116290407825840000006415331514591164055_);" d="M47.36,129.39 c-0.97-0.98-2.23-1.48-3.5-1.5c-2.12-0.04-4.14-0.85-5.64-2.35l0,0c-1.5-1.5-2.31-3.53-2.35-5.65c-0.02-1.26-0.52-2.51-1.48-3.46 c-0.96-0.96-2.21-1.45-3.46-1.48c-2.12-0.04-4.15-0.85-5.65-2.35l0,0c-1.5-1.5-2.31-3.52-2.35-5.64c-0.02-1.27-0.52-2.54-1.5-3.5 c-1.91-1.88-5.07-1.92-7.02-0.08c-2.08,1.96-2.11,5.24-0.11,7.25c0.96,0.96,2.21,1.45,3.46,1.48c2.12,0.04,4.15,0.85,5.65,2.35 l0,0c1.5,1.5,2.31,3.53,2.35,5.65c0.02,1.26,0.52,2.51,1.48,3.46c0.96,0.96,2.21,1.45,3.47,1.48c2.12,0.04,4.15,0.85,5.65,2.35 l0,0c1.5,1.5,2.31,3.53,2.35,5.65c0.02,1.26,0.52,2.51,1.48,3.46c2.01,2.01,5.28,1.97,7.25-0.1 C49.28,134.46,49.24,131.3,47.36,129.39z"/> <linearGradient id="SVGID_00000087413542025603876940000001339540449173790650_" gradientUnits="userSpaceOnUse" x1="30.8063" y1="93.8092" x2="30.8063" y2="161.8199"> <stop offset="0" style="stop-color:#70EDFF"/> <stop offset="1" style="stop-color:#2671BC"/> </linearGradient> <path style="fill:url(#SVGID_00000087413542025603876940000001339540449173790650_);" d="M30.81,99.3c2.79,0,5.05-2.26,5.05-5.05 c0-2.79-2.26-5.05-5.05-5.05s-5.05,2.26-5.05,5.05C25.75,97.04,28.02,99.3,30.81,99.3z"/> <linearGradient id="SVGID_00000058576186772902457860000015408948258620038539_" gradientUnits="userSpaceOnUse" x1="30.8063" y1="93.8092" x2="30.8063" y2="161.8199"> <stop offset="0" style="stop-color:#70EDFF"/> <stop offset="1" style="stop-color:#2671BC"/> </linearGradient> <path style="fill:url(#SVGID_00000058576186772902457860000015408948258620038539_);" d="M30.81,109.19c1.16,0,2.1-0.94,2.1-2.1 s-0.94-2.1-2.1-2.1s-2.1,0.94-2.1,2.1S29.64,109.19,30.81,109.19z"/> <linearGradient id="SVGID_00000034059608740901936510000005859039793207534739_" gradientUnits="userSpaceOnUse" x1="17.8894" y1="93.8092" x2="17.8894" y2="161.8199"> <stop offset="0" style="stop-color:#70EDFF"/> <stop offset="1" style="stop-color:#2671BC"/> </linearGradient> <path style="fill:url(#SVGID_00000034059608740901936510000005859039793207534739_);" d="M19.99,120.02c0-1.16-0.94-2.1-2.1-2.1 s-2.1,0.94-2.1,2.1s0.94,2.1,2.1,2.1S19.99,121.18,19.99,120.02z"/> <linearGradient id="SVGID_00000150076521833993828270000001206647916985560232_" gradientUnits="userSpaceOnUse" x1="30.828" y1="93.8092" x2="30.828" y2="161.8199"> <stop offset="0" style="stop-color:#70EDFF"/> <stop offset="1" style="stop-color:#2671BC"/> </linearGradient> <path style="fill:url(#SVGID_00000150076521833993828270000001206647916985560232_);" d="M30.83,130.84c-1.16,0-2.1,0.94-2.1,2.1 c0,1.16,0.94,2.1,2.1,2.1s2.1-0.94,2.1-2.1C32.93,131.78,31.99,130.84,30.83,130.84z"/> <linearGradient id="SVGID_00000156581284821012238260000008070080091415552435_" gradientUnits="userSpaceOnUse" x1="43.7449" y1="93.8092" x2="43.7449" y2="161.8199"> <stop offset="0" style="stop-color:#70EDFF"/> <stop offset="1" style="stop-color:#2671BC"/> </linearGradient> <path style="fill:url(#SVGID_00000156581284821012238260000008070080091415552435_);" d="M41.64,120c0,1.16,0.94,2.1,2.1,2.1 c1.16,0,2.1-0.94,2.1-2.1s-0.94-2.1-2.1-2.1C42.58,117.9,41.64,118.84,41.64,120z"/> <linearGradient id="SVGID_00000013190442560438121110000014686874076139526588_" gradientUnits="userSpaceOnUse" x1="5.0522" y1="93.8092" x2="5.0522" y2="161.8199"> <stop offset="0" style="stop-color:#70EDFF"/> <stop offset="1" style="stop-color:#2671BC"/> </linearGradient> <circle style="fill:url(#SVGID_00000013190442560438121110000014686874076139526588_);" cx="5.05" cy="120" r="5.05"/> <linearGradient id="SVGID_00000054265313991658186990000013466187726429516190_" gradientUnits="userSpaceOnUse" x1="30.8063" y1="93.8092" x2="30.8063" y2="161.8199"> <stop offset="0" style="stop-color:#70EDFF"/> <stop offset="1" style="stop-color:#2671BC"/> </linearGradient> <path style="fill:url(#SVGID_00000054265313991658186990000013466187726429516190_);" d="M30.81,140.7 c-2.79,0-5.05,2.26-5.05,5.05c0,2.79,2.26,5.05,5.05,5.05s5.05-2.26,5.05-5.05C35.86,142.96,33.6,140.7,30.81,140.7z"/> <linearGradient id="SVGID_00000112631383048567917020000010660372936051580314_" gradientUnits="userSpaceOnUse" x1="56.5605" y1="93.8092" x2="56.5605" y2="161.8199"> <stop offset="0" style="stop-color:#70EDFF"/> <stop offset="1" style="stop-color:#2671BC"/> </linearGradient> <path style="fill:url(#SVGID_00000112631383048567917020000010660372936051580314_);" d="M56.56,114.95 c-2.79,0-5.05,2.26-5.05,5.05c0,2.79,2.26,5.05,5.05,5.05c2.79,0,5.05-2.26,5.05-5.05C61.61,117.21,59.35,114.95,56.56,114.95z"/> </g> <g> <g> <linearGradient id="SVGID_00000096771197113808593360000013358594859775454865_" gradientUnits="userSpaceOnUse" x1="81.4202" y1="93.8092" x2="81.4202" y2="161.8199"> <stop offset="0" style="stop-color:#70EDFF"/> <stop offset="1" style="stop-color:#2671BC"/> </linearGradient> <path style="fill:url(#SVGID_00000096771197113808593360000013358594859775454865_);" d="M85.42,130.5l-3.99-6.23l-3.99,6.23 h-4.38l6.23-9.57l-5.86-9.22h4.38l3.62,5.92l3.59-5.92h4.36l-5.78,9.22l6.18,9.57H85.42z"/> <linearGradient id="SVGID_00000109007403056018964750000005329914133283698094_" gradientUnits="userSpaceOnUse" x1="94.0029" y1="93.8092" x2="94.0029" y2="161.8199"> <stop offset="0" style="stop-color:#70EDFF"/> <stop offset="1" style="stop-color:#2671BC"/> </linearGradient> <path style="fill:url(#SVGID_00000109007403056018964750000005329914133283698094_);" d="M92.08,109.15h3.84v21.35h-3.84V109.15z "/> <linearGradient id="SVGID_00000132050886296140735400000006343815899871906482_" gradientUnits="userSpaceOnUse" x1="105.9444" y1="93.8092" x2="105.9444" y2="161.8199"> <stop offset="0" style="stop-color:#70EDFF"/> <stop offset="1" style="stop-color:#2671BC"/> </linearGradient> <path style="fill:url(#SVGID_00000132050886296140735400000006343815899871906482_);" d="M102.81,124.75 c0.46,1.79,1.91,2.79,3.96,2.79c1.39,0,2.7-0.48,3.93-1.42l1.59,2.62c-1.68,1.39-3.56,2.11-5.64,2.11 c-4.36,0.09-7.8-3.3-7.71-7.37c-0.09-4.07,3.3-7.46,7.37-7.37c3.9,0,6.63,2.88,6.63,6.55c0,0.68-0.09,1.39-0.26,2.11H102.81z M109.22,122.05c-0.03-1.74-1.37-2.85-3.05-2.85c-1.62,0-2.93,1.11-3.36,2.85H109.22z"/> <linearGradient id="SVGID_00000141452662353595596920000017026091872853449136_" gradientUnits="userSpaceOnUse" x1="121.4174" y1="93.8092" x2="121.4174" y2="161.8199"> <stop offset="0" style="stop-color:#70EDFF"/> <stop offset="1" style="stop-color:#2671BC"/> </linearGradient> <path style="fill:url(#SVGID_00000141452662353595596920000017026091872853449136_);" d="M129.03,116.41l-6.97,14.43h-1.28 l-6.97-14.43h4.04l3.56,7.97l3.56-7.97H129.03z"/> <linearGradient id="SVGID_00000020373416258789443240000007164431167139661979_" gradientUnits="userSpaceOnUse" x1="136.178" y1="93.8092" x2="136.178" y2="161.8199"> <stop offset="0" style="stop-color:#70EDFF"/> <stop offset="1" style="stop-color:#2671BC"/> </linearGradient> <path style="fill:url(#SVGID_00000020373416258789443240000007164431167139661979_);" d="M142.53,130.5H139v-1.37 c-1.02,1.05-2.5,1.71-4.3,1.71c-2.99,0-4.87-1.74-4.87-4.21c0-2.53,2.05-4.1,5.32-4.1h3.53v-0.63c0-1.57-0.91-2.48-2.62-2.48 c-1.45,0-2.48,0.6-3.73,1.94l-1.99-2.36c1.62-1.94,3.67-2.9,6.15-2.9c3.67,0,6.04,2.14,6.04,6.04V130.5z M138.68,125.07h-3.02 c-1.25,0-1.96,0.48-1.96,1.42s0.8,1.54,2.02,1.54c1.68,0,2.96-1.17,2.96-2.79V125.07z"/> <linearGradient id="SVGID_00000016077165221368730600000017168986519637642638_" gradientUnits="userSpaceOnUse" x1="150.0276" y1="93.8092" x2="150.0276" y2="161.8199"> <stop offset="0" style="stop-color:#70EDFF"/> <stop offset="1" style="stop-color:#2671BC"/> </linearGradient> <path style="fill:url(#SVGID_00000016077165221368730600000017168986519637642638_);" d="M155.28,130.5 c-0.91,0.23-1.79,0.34-2.65,0.34c-3.56,0-5.64-1.76-5.64-5.29v-5.89h-2.22v-3.25H147v-3.56h3.84v3.56h3.99v3.25h-3.99v5.55 c0,1.59,0.8,2.19,2.62,2.19c0.23,0,0.83-0.03,1.82-0.11V130.5z"/> <linearGradient id="SVGID_00000022551494261761429190000018300876006349311634_" gradientUnits="userSpaceOnUse" x1="163.9902" y1="93.8092" x2="163.9902" y2="161.8199"> <stop offset="0" style="stop-color:#70EDFF"/> <stop offset="1" style="stop-color:#2671BC"/> </linearGradient> <path style="fill:url(#SVGID_00000022551494261761429190000018300876006349311634_);" d="M160.86,124.75 c0.46,1.79,1.91,2.79,3.96,2.79c1.4,0,2.7-0.48,3.93-1.42l1.59,2.62c-1.68,1.39-3.56,2.11-5.64,2.11 c-4.36,0.09-7.8-3.3-7.71-7.37c-0.09-4.07,3.3-7.46,7.37-7.37c3.9,0,6.63,2.88,6.63,6.55c0,0.68-0.09,1.39-0.26,2.11H160.86z M167.26,122.05c-0.03-1.74-1.37-2.85-3.05-2.85c-1.62,0-2.93,1.11-3.36,2.85H167.26z"/> <linearGradient id="SVGID_00000006697826176911226960000008633454925449242287_" gradientUnits="userSpaceOnUse" x1="186.9646" y1="93.8092" x2="186.9646" y2="161.8199"> <stop offset="0" style="stop-color:#70EDFF"/> <stop offset="1" style="stop-color:#2671BC"/> </linearGradient> <path style="fill:url(#SVGID_00000006697826176911226960000008633454925449242287_);" d="M185.03,115.19h-6.01v-3.47h15.89v3.47 h-6.04v15.32h-3.84V115.19z"/> <linearGradient id="SVGID_00000170241624693973437400000002966834119010911887_" gradientUnits="userSpaceOnUse" x1="201.34" y1="93.8092" x2="201.34" y2="161.8199"> <stop offset="0" style="stop-color:#70EDFF"/> <stop offset="1" style="stop-color:#2671BC"/> </linearGradient> <path style="fill:url(#SVGID_00000170241624693973437400000002966834119010911887_);" d="M198.21,124.75 c0.46,1.79,1.91,2.79,3.96,2.79c1.39,0,2.7-0.48,3.93-1.42l1.59,2.62c-1.68,1.39-3.56,2.11-5.64,2.11 c-4.36,0.09-7.8-3.3-7.71-7.37c-0.09-4.07,3.3-7.46,7.37-7.37c3.9,0,6.63,2.88,6.63,6.55c0,0.68-0.09,1.39-0.26,2.11H198.21z M204.61,122.05c-0.03-1.74-1.37-2.85-3.05-2.85c-1.62,0-2.93,1.11-3.36,2.85H204.61z"/> <linearGradient id="SVGID_00000138571643297823115730000005937869297263795645_" gradientUnits="userSpaceOnUse" x1="217.3678" y1="93.8092" x2="217.3678" y2="161.8199"> <stop offset="0" style="stop-color:#70EDFF"/> <stop offset="1" style="stop-color:#2671BC"/> </linearGradient> <path style="fill:url(#SVGID_00000138571643297823115730000005937869297263795645_);" d="M218.08,116.1 c2.76,0,4.9,1.31,6.12,3.47l-2.68,2.08c-0.88-1.28-1.91-2.05-3.39-2.05c-2.16,0-3.7,1.65-3.7,3.84c0,2.25,1.54,3.87,3.7,3.87 c1.45,0,2.48-0.74,3.39-2.02l2.68,2.05c-1.22,2.16-3.39,3.5-6.12,3.5c-4.13,0.09-7.6-3.33-7.54-7.4 C210.54,119.32,213.9,116.1,218.08,116.1z"/> <linearGradient id="SVGID_00000145746451361459316060000007353206986530876073_" gradientUnits="userSpaceOnUse" x1="233.5236" y1="93.8092" x2="233.5236" y2="161.8199"> <stop offset="0" style="stop-color:#70EDFF"/> <stop offset="1" style="stop-color:#2671BC"/> </linearGradient> <path style="fill:url(#SVGID_00000145746451361459316060000007353206986530876073_);" d="M240,130.5h-3.81v-8.2 c0-1.62-1.05-2.73-2.62-2.73c-1.57,0-2.68,1.11-2.68,2.73v8.2h-3.84v-21.35h3.84v8.46c0.94-0.94,2.31-1.51,3.87-1.51 c3.19,0,5.24,2.25,5.24,5.67V130.5z"/> </g> </g>
</g>
</svg>
