<?xml version="1.0" encoding="utf-8"?>
<!-- Generator: Adobe Illustrator 27.1.0, SVG Export Plug-In . SVG Version: 6.00 Build 0)  -->
<svg version="1.1" id="Layer_1" xmlns="http://www.w3.org/2000/svg" xmlns:xlink="http://www.w3.org/1999/xlink" x="0px" y="0px"
	 viewBox="0 0 239.24 61.42" style="enable-background:new 0 0 239.24 61.42;" xml:space="preserve">
<style type="text/css">
	.st0{display:none;fill:#1A1F2C;}
	.st1{display:none;}
	.st2{display:inline;}
	.st3{display:inline;fill:none;stroke:#000000;stroke-width:6;stroke-miterlimit:10;}
	.st4{fill:url(#SVGID_1_);}
	.st5{fill:url(#SVGID_00000178169144367544920090000004872678522355532708_);}
	.st6{fill:url(#SVGID_00000051375940030926291190000010396802026858374531_);}
	.st7{fill:url(#SVGID_00000124878611980138027320000012706213038652944563_);}
	.st8{fill:url(#SVGID_00000162329903721467196130000000773754952044212128_);}
	.st9{fill:url(#SVGID_00000018237308353215967210000014255659354564049820_);}
	.st10{fill:url(#SVGID_00000006686273122272487030000007272349125312018340_);}
	.st11{fill:url(#SVGID_00000114769134498358840580000002508546051928854462_);}
	.st12{fill:url(#SVGID_00000106143044699340626200000018143866718345959079_);}
	.st13{fill:url(#SVGID_00000168114925011585716650000014489733361532510126_);}
	.st14{fill:url(#SVGID_00000023274612918964998400000012227852838186475649_);}
	.st15{fill:url(#SVGID_00000111163572697301109100000000681798449138312885_);}
	.st16{fill:url(#SVGID_00000172416954586870223600000015926041402338977972_);}
	.st17{fill:url(#SVGID_00000042733439669509897150000000679392372770394295_);}
	.st18{fill:url(#SVGID_00000105395784576361988090000010082764091792083623_);}
	.st19{fill:url(#SVGID_00000087394651604298948890000012192146305614108082_);}
	.st20{fill:url(#SVGID_00000053529275002033294040000009571303315577919165_);}
	.st21{fill:url(#SVGID_00000140005849972874624930000000516701909624947627_);}
	.st22{fill:url(#SVGID_00000000902075221990038670000001085460567653781143_);}
	.st23{fill:url(#SVGID_00000161620145738404529990000010545522924536857000_);}
	.st24{fill:url(#SVGID_00000088127962949666436450000004179158149864204951_);}
	.st25{fill:url(#SVGID_00000154424850728769148010000014579304582727664773_);}
	.st26{fill:url(#SVGID_00000132807324811180524820000005008472798031218350_);}
	.st27{fill:url(#SVGID_00000114775681235616458390000003126984453288875915_);}
	.st28{fill:url(#SVGID_00000033348661005916250490000005373240463735811505_);}
	.st29{fill:url(#SVGID_00000007390949248673823030000009184836482520469892_);}
	.st30{fill:url(#SVGID_00000098193493206676426560000010658908274284482490_);}
	.st31{fill:url(#SVGID_00000141456683145154502680000004925604369038684845_);}
	.st32{fill:url(#SVGID_00000021114981938958124780000000617411824908692413_);}
	.st33{fill:url(#SVGID_00000022560944884560224190000015544272848902645685_);}
	.st34{fill:url(#SVGID_00000042725264820617354090000017294087222360624800_);}
	.st35{fill:url(#SVGID_00000003076981513816327330000012678208085753292165_);}
	.st36{fill:url(#SVGID_00000166641646017484782110000001852121565152053931_);}
	.st37{fill:url(#SVGID_00000175313177942209057660000015735210588803227065_);}
	.st38{fill:url(#SVGID_00000162318635156179304260000003348802127607670676_);}
	.st39{fill:url(#SVGID_00000141428646282549073900000008415490270413727622_);}
	.st40{fill:url(#SVGID_00000057115409856074793230000004837026514094857108_);}
	.st41{fill:url(#SVGID_00000183243301566469630730000013918240525401603205_);}
	.st42{fill:url(#SVGID_00000083804356786096841800000004849392131914543013_);}
	.st43{fill:url(#SVGID_00000072977447192632188940000001333503072700128142_);}
	.st44{fill:url(#SVGID_00000134947252132847759420000007094099867660633749_);}
	.st45{fill:url(#SVGID_00000060029837466455194570000013171517645576553405_);}
	.st46{fill:url(#SVGID_00000045578279821171781600000016194172731407220362_);}
	.st47{fill:url(#SVGID_00000058561003117795112970000016516596439374721431_);}
	.st48{fill:url(#SVGID_00000155865009499059027340000008642281607582787482_);}
	.st49{fill:url(#SVGID_00000059285001489715692310000011479425058245711284_);}
	.st50{fill:url(#SVGID_00000054978732497621033220000007181121369587707781_);}
	.st51{fill:url(#SVGID_00000166669458744942107610000010483648236250404481_);}
	.st52{fill:url(#SVGID_00000050663627345577043300000013563690454187950978_);}
	.st53{fill:url(#SVGID_00000157996316023031483940000016657515536266796162_);}
	.st54{fill:url(#SVGID_00000082350076399001665480000001646783647505720503_);}
	.st55{fill:url(#SVGID_00000108277360882051991250000008325005288077415084_);}
	.st56{fill:url(#SVGID_00000112606155561765460540000017881076259099518879_);}
	.st57{fill:url(#SVGID_00000016773390787075385490000011608275192120447642_);}
	.st58{fill:url(#SVGID_00000136400984351810788470000016840486358357419399_);}
	.st59{fill:url(#SVGID_00000135684768336521995300000009282387032828359049_);}
	.st60{fill:url(#SVGID_00000155114053648661254010000009165346925003504293_);}
	.st61{fill:url(#SVGID_00000029036832289019519550000016176627779379564209_);}
	.st62{fill:url(#SVGID_00000120536144629281261830000014039487449148645280_);}
	.st63{fill:url(#SVGID_00000039828993674938380140000008388795513767247039_);}
	.st64{fill:url(#SVGID_00000121962659110818170250000011796581892851753617_);}
	.st65{fill:url(#SVGID_00000023248405303217843570000015880106807130706064_);}
	.st66{fill:url(#SVGID_00000013904583448849881690000000017635482158289069_);}
	.st67{fill:url(#SVGID_00000132809682469319185650000013429180036794916748_);}
	.st68{fill:url(#SVGID_00000101806970238649171240000018177037403340091285_);}
	.st69{fill:url(#SVGID_00000000191607226041964120000013124662650266068614_);}
	.st70{fill:url(#SVGID_00000141420186898166072310000004628636290688767922_);}
	.st71{fill:url(#SVGID_00000156552778349353481880000018068407363598833808_);}
	.st72{fill:url(#SVGID_00000106846664422010750620000006632969688580054163_);}
	.st73{fill:url(#SVGID_00000052811916357314437380000006963048232065183650_);}
	.st74{fill:url(#SVGID_00000108276963196325274550000010435742924529177500_);}
	.st75{fill:url(#SVGID_00000084526387030576579110000000291179225096718214_);}
	.st76{fill:url(#SVGID_00000078736437977311623100000003914777254137794968_);}
	.st77{fill:url(#SVGID_00000059270319187281877450000003314217799708164522_);}
	.st78{fill:url(#SVGID_00000162330233185910929010000015855437304512093323_);}
	.st79{fill:url(#SVGID_00000054963953369209551770000000773718852102870670_);}
	.st80{fill:url(#SVGID_00000062170365188921917640000000635156587737619851_);}
	.st81{fill:url(#SVGID_00000118391608133560947730000010721613638058402233_);}
	.st82{fill:url(#SVGID_00000008138967565343176470000013387872920927538353_);}
	.st83{fill:url(#SVGID_00000088820254508986548120000000779501169941713840_);}
	.st84{fill:url(#SVGID_00000106126589978898371080000012612266456139859869_);}
	.st85{fill:url(#SVGID_00000050643595019417916140000017515519057961479573_);}
	.st86{fill:url(#SVGID_00000176738712371306616380000005591968250898323863_);}
	.st87{fill:url(#SVGID_00000088843330195635583800000000177191540130902202_);}
	.st88{fill:url(#SVGID_00000026876304157704192360000014586244918885919154_);}
	.st89{fill:url(#SVGID_00000111182420291606826630000017095630041726061440_);}
	.st90{fill:url(#SVGID_00000073683925461228105020000008793173592248746416_);}
	.st91{fill:url(#SVGID_00000119815394041537934830000000419818960229198216_);}
	.st92{fill:url(#SVGID_00000176015198694138338190000008399014693504120722_);}
	.st93{fill:url(#SVGID_00000034092218293875212870000014702225027099050658_);}
	.st94{fill:url(#SVGID_00000089567165211797838060000018421373328469235087_);}
	.st95{fill:url(#SVGID_00000010302475499468323500000005280292393582930601_);}
	.st96{fill:url(#SVGID_00000056416857912567878830000004215157726506000000_);}
	.st97{fill:url(#SVGID_00000080906262534366716670000009255309612434810032_);}
	.st98{fill:url(#SVGID_00000005988214504756317670000001299402614757735607_);}
	.st99{fill:url(#SVGID_00000126316290249020090600000009090965854032050598_);}
	.st100{fill:url(#SVGID_00000059301186743956638210000017584794302660951730_);}
	.st101{fill:url(#SVGID_00000004545933315474876220000005636222408476081084_);}
	.st102{fill:url(#SVGID_00000119083880638201253950000011816567073480175748_);}
	.st103{fill:url(#SVGID_00000135662514163610912000000002159678789827798697_);}
	.st104{fill:url(#SVGID_00000176733398351054655820000017888697697464509365_);}
	.st105{fill:url(#SVGID_00000101078057817479833210000011608556907267555233_);}
	.st106{fill:url(#SVGID_00000005235268699636150680000014670424060175790014_);}
	.st107{fill:url(#SVGID_00000065075431857969496450000005384054362935443641_);}
	.st108{fill:url(#SVGID_00000087413195216833614250000014031854345549740170_);}
	.st109{fill:url(#SVGID_00000160158871201163694040000003746335698043883194_);}
	.st110{fill:url(#SVGID_00000167364445109267305990000014381890547945829037_);}
	.st111{fill:#1A1F2C;}
	.st112{fill:url(#SVGID_00000116201777173716576440000007937139434127387269_);}
	.st113{fill:url(#SVGID_00000122689781831483202110000001214453148979597466_);}
	.st114{fill:url(#SVGID_00000101812852129410544890000014767285589797769112_);}
	.st115{fill:url(#SVGID_00000114767244599683703990000017898067469188945848_);}
	.st116{fill:url(#SVGID_00000121271439705856771310000012960531333432032656_);}
	.st117{fill:url(#SVGID_00000049937858532310688900000003198594166288424096_);}
	.st118{fill:url(#SVGID_00000076568506106371489700000002917060909354953611_);}
	.st119{fill:url(#SVGID_00000075133759600825868100000013405706010509931923_);}
	.st120{fill:url(#SVGID_00000059277194568424880200000004827454083679145858_);}
	.st121{fill:url(#SVGID_00000163760980087714851930000015241682233134619307_);}
	.st122{fill:url(#SVGID_00000080185908462860712140000012751003802803038397_);}
	.st123{fill:url(#SVGID_00000108306879420518689220000003234116263288362412_);}
	.st124{fill:url(#SVGID_00000039824154205324525210000001314466957021911695_);}
	.st125{fill:url(#SVGID_00000170998432748171375380000004758410909108722852_);}
	.st126{fill:url(#SVGID_00000111877600431244061320000004128499115567920541_);}
	.st127{fill:url(#SVGID_00000139288807900853526230000017194100805062698416_);}
	.st128{fill:url(#SVGID_00000097474907664893422350000014051564389292807074_);}
	.st129{fill:url(#SVGID_00000138540635292464354190000014024350177860054430_);}
	.st130{fill:url(#SVGID_00000005978538950168970650000013523985735556087436_);}
	.st131{fill:url(#SVGID_00000096053103832542666370000008650978604384387982_);}
	.st132{fill:url(#SVGID_00000066484702169606705460000004643635486338548903_);}
	.st133{fill:url(#SVGID_00000132081269331584364860000012763568063424027278_);}
	.st134{fill:url(#SVGID_00000104664324033122611590000008873128464973437076_);}
	.st135{fill:url(#SVGID_00000069386658414543256910000013667554411392684718_);}
	.st136{fill:url(#SVGID_00000069382891771803258090000001763645430583939468_);}
	.st137{fill:url(#SVGID_00000075161818813809296390000012832863344358499492_);}
	.st138{fill:url(#SVGID_00000119817633038255990100000016299252634904696997_);}
	.st139{fill:url(#SVGID_00000155826376463263424310000006720584899614129811_);}
	.st140{fill:url(#SVGID_00000099625598473998625980000000936753652612891069_);}
	.st141{fill:url(#SVGID_00000053535058007233547260000008286144693909863338_);}
	.st142{fill:url(#SVGID_00000034078720568996231860000011952651216875816111_);}
	.st143{fill:url(#SVGID_00000183230397807197553830000005440648831805609890_);}
	.st144{fill:url(#SVGID_00000143608043479513212090000004965824451348001199_);}
	.st145{fill:url(#SVGID_00000123413522198313215290000011805785635596951986_);}
	.st146{fill:url(#SVGID_00000106140170723580399410000012108311660499399570_);}
	.st147{fill:url(#SVGID_00000137095905283269822240000010249784305352607891_);}
	.st148{fill:url(#SVGID_00000139998308475361648830000009794590031909907121_);}
	.st149{fill:url(#SVGID_00000180353770535152768210000006829503553798511268_);}
	.st150{fill:url(#SVGID_00000018919947334595122050000010105645969523357572_);}
	.st151{fill:url(#SVGID_00000050658625542558127220000018324774570533576108_);}
	.st152{fill:url(#SVGID_00000039849325082798817120000004532003230102856077_);}
	.st153{fill:url(#SVGID_00000055697399690933858590000014744013051158978218_);}
</style>
<rect x="-0.98" y="-3.22" class="st111" width="241.19" height="67.86"/>
<g>
	<g>
		<linearGradient id="SVGID_1_" gradientUnits="userSpaceOnUse" x1="30.7192" y1="4.6009" x2="30.7192" y2="72.3956">
			<stop  offset="0" style="stop-color:#70EDFF"/>
			<stop  offset="1" style="stop-color:#2671BC"/>
		</linearGradient>
		<path class="st4" d="M40.07,14.23c-0.98,0.96-1.47,2.22-1.5,3.49c-0.04,2.11-0.85,4.13-2.34,5.62l0,0
			c-1.49,1.49-3.52,2.3-5.63,2.34c-1.25,0.02-2.5,0.51-3.45,1.47c-0.96,0.96-1.45,2.2-1.47,3.45c-0.04,2.11-0.85,4.14-2.34,5.63l0,0
			c-1.49,1.49-3.51,2.3-5.62,2.34c-1.27,0.02-2.53,0.52-3.49,1.49c-1.87,1.9-1.91,5.05-0.08,6.99c1.96,2.07,5.22,2.11,7.22,0.1
			c0.96-0.96,1.45-2.2,1.47-3.45c0.04-2.11,0.85-4.14,2.34-5.63l0,0c1.49-1.49,3.52-2.3,5.63-2.34c1.25-0.02,2.5-0.51,3.45-1.47
			c0.96-0.96,1.45-2.2,1.47-3.45c0.04-2.11,0.85-4.14,2.34-5.63l0,0c1.49-1.49,3.52-2.3,5.63-2.34c1.25-0.02,2.5-0.51,3.45-1.47
			c2-2,1.97-5.27-0.1-7.22C45.12,12.32,41.97,12.35,40.07,14.23z"/>
		
			<linearGradient id="SVGID_00000072996446199471600620000017057916692735255970_" gradientUnits="userSpaceOnUse" x1="30.7192" y1="4.6009" x2="30.7192" y2="72.3956">
			<stop  offset="0" style="stop-color:#70EDFF"/>
			<stop  offset="1" style="stop-color:#2671BC"/>
		</linearGradient>
		<path style="fill:url(#SVGID_00000072996446199471600620000017057916692735255970_);" d="M47.21,40.07
			c-0.96-0.98-2.22-1.47-3.49-1.5c-2.11-0.04-4.13-0.85-5.62-2.34l0,0c-1.49-1.49-2.3-3.52-2.34-5.63c-0.02-1.25-0.51-2.5-1.47-3.45
			c-0.96-0.96-2.2-1.45-3.45-1.47c-2.11-0.04-4.14-0.85-5.63-2.34l0,0c-1.49-1.49-2.3-3.51-2.34-5.62
			c-0.02-1.27-0.52-2.53-1.49-3.49c-1.9-1.87-5.05-1.91-6.99-0.08c-2.07,1.96-2.11,5.22-0.1,7.22c0.96,0.96,2.2,1.45,3.45,1.47
			c2.11,0.04,4.14,0.85,5.63,2.34l0,0c1.49,1.49,2.3,3.52,2.34,5.63c0.02,1.25,0.51,2.5,1.47,3.45c0.96,0.96,2.2,1.45,3.45,1.47
			c2.11,0.04,4.14,0.85,5.63,2.34l0,0c1.49,1.49,2.3,3.52,2.34,5.63c0.02,1.25,0.51,2.5,1.47,3.45c2,2,5.27,1.97,7.22-0.1
			C49.12,45.12,49.09,41.97,47.21,40.07z"/>
		
			<linearGradient id="SVGID_00000109727885762753767170000014156423644145199015_" gradientUnits="userSpaceOnUse" x1="30.7084" y1="4.6009" x2="30.7084" y2="72.3956">
			<stop  offset="0" style="stop-color:#70EDFF"/>
			<stop  offset="1" style="stop-color:#2671BC"/>
		</linearGradient>
		<path style="fill:url(#SVGID_00000109727885762753767170000014156423644145199015_);" d="M30.71,10.07c2.78,0,5.04-2.25,5.04-5.04
			S33.49,0,30.71,0s-5.04,2.25-5.04,5.04S27.93,10.07,30.71,10.07z"/>
		
			<linearGradient id="SVGID_00000155144080335940958180000012974271200903188127_" gradientUnits="userSpaceOnUse" x1="30.7084" y1="4.6009" x2="30.7084" y2="72.3956">
			<stop  offset="0" style="stop-color:#70EDFF"/>
			<stop  offset="1" style="stop-color:#2671BC"/>
		</linearGradient>
		<path style="fill:url(#SVGID_00000155144080335940958180000012974271200903188127_);" d="M30.71,19.93c1.16,0,2.1-0.94,2.1-2.1
			c0-1.16-0.94-2.1-2.1-2.1c-1.16,0-2.1,0.94-2.1,2.1C28.61,18.99,29.55,19.93,30.71,19.93z"/>
		
			<linearGradient id="SVGID_00000171717960883779802440000008693579710652573325_" gradientUnits="userSpaceOnUse" x1="17.8326" y1="4.6009" x2="17.8326" y2="72.3956">
			<stop  offset="0" style="stop-color:#70EDFF"/>
			<stop  offset="1" style="stop-color:#2671BC"/>
		</linearGradient>
		<path style="fill:url(#SVGID_00000171717960883779802440000008693579710652573325_);" d="M19.93,30.73c0-1.16-0.94-2.1-2.1-2.1
			c-1.16,0-2.1,0.94-2.1,2.1c0,1.16,0.94,2.1,2.1,2.1C18.99,32.83,19.93,31.89,19.93,30.73z"/>
		
			<linearGradient id="SVGID_00000139988573466890854220000008010842324242042024_" gradientUnits="userSpaceOnUse" x1="30.7301" y1="4.6009" x2="30.7301" y2="72.3956">
			<stop  offset="0" style="stop-color:#70EDFF"/>
			<stop  offset="1" style="stop-color:#2671BC"/>
		</linearGradient>
		<path style="fill:url(#SVGID_00000139988573466890854220000008010842324242042024_);" d="M30.73,41.51c-1.16,0-2.1,0.94-2.1,2.1
			s0.94,2.1,2.1,2.1c1.16,0,2.1-0.94,2.1-2.1S31.89,41.51,30.73,41.51z"/>
		
			<linearGradient id="SVGID_00000042002231234895332830000013726355500814230703_" gradientUnits="userSpaceOnUse" x1="43.6059" y1="4.6009" x2="43.6059" y2="72.3956">
			<stop  offset="0" style="stop-color:#70EDFF"/>
			<stop  offset="1" style="stop-color:#2671BC"/>
		</linearGradient>
		<path style="fill:url(#SVGID_00000042002231234895332830000013726355500814230703_);" d="M41.51,30.71c0,1.16,0.94,2.1,2.1,2.1
			s2.1-0.94,2.1-2.1c0-1.16-0.94-2.1-2.1-2.1S41.51,29.55,41.51,30.71z"/>
		
			<linearGradient id="SVGID_00000091002353962570227600000015033498576450457271_" gradientUnits="userSpaceOnUse" x1="5.0362" y1="4.6009" x2="5.0362" y2="72.3956">
			<stop  offset="0" style="stop-color:#70EDFF"/>
			<stop  offset="1" style="stop-color:#2671BC"/>
		</linearGradient>
		<circle style="fill:url(#SVGID_00000091002353962570227600000015033498576450457271_);" cx="5.04" cy="30.71" r="5.04"/>
		
			<linearGradient id="SVGID_00000124128384353509912250000012907450393280836493_" gradientUnits="userSpaceOnUse" x1="30.7084" y1="4.6009" x2="30.7084" y2="72.3956">
			<stop  offset="0" style="stop-color:#70EDFF"/>
			<stop  offset="1" style="stop-color:#2671BC"/>
		</linearGradient>
		<path style="fill:url(#SVGID_00000124128384353509912250000012907450393280836493_);" d="M30.71,51.34
			c-2.78,0-5.04,2.25-5.04,5.04c0,2.78,2.25,5.04,5.04,5.04s5.04-2.25,5.04-5.04C35.74,53.6,33.49,51.34,30.71,51.34z"/>
		
			<linearGradient id="SVGID_00000166643114718544111800000002186377075796651421_" gradientUnits="userSpaceOnUse" x1="56.3808" y1="4.6009" x2="56.3808" y2="72.3956">
			<stop  offset="0" style="stop-color:#70EDFF"/>
			<stop  offset="1" style="stop-color:#2671BC"/>
		</linearGradient>
		<path style="fill:url(#SVGID_00000166643114718544111800000002186377075796651421_);" d="M56.38,25.67
			c-2.78,0-5.04,2.25-5.04,5.04c0,2.78,2.25,5.04,5.04,5.04c2.78,0,5.04-2.25,5.04-5.04C61.42,27.93,59.16,25.67,56.38,25.67z"/>
	</g>
	<g>
		<g>
			
				<linearGradient id="SVGID_00000051364513160387584550000001375337018455845760_" gradientUnits="userSpaceOnUse" x1="81.1615" y1="4.6009" x2="81.1615" y2="72.3956">
				<stop  offset="0" style="stop-color:#70EDFF"/>
				<stop  offset="1" style="stop-color:#2671BC"/>
			</linearGradient>
			<path style="fill:url(#SVGID_00000051364513160387584550000001375337018455845760_);" d="M85.15,41.18l-3.97-6.21l-3.97,6.21
				h-4.37l6.21-9.53l-5.85-9.19h4.37l3.6,5.9l3.58-5.9h4.34l-5.76,9.19l6.16,9.53H85.15z"/>
			
				<linearGradient id="SVGID_00000035491247565155419510000013398641451844599186_" gradientUnits="userSpaceOnUse" x1="93.7043" y1="4.6009" x2="93.7043" y2="72.3956">
				<stop  offset="0" style="stop-color:#70EDFF"/>
				<stop  offset="1" style="stop-color:#2671BC"/>
			</linearGradient>
			<path style="fill:url(#SVGID_00000035491247565155419510000013398641451844599186_);" d="M91.79,19.9h3.83v21.28h-3.83V19.9z"/>
			
				<linearGradient id="SVGID_00000167371734305937828150000014084020473713106055_" gradientUnits="userSpaceOnUse" x1="105.6079" y1="4.6009" x2="105.6079" y2="72.3956">
				<stop  offset="0" style="stop-color:#70EDFF"/>
				<stop  offset="1" style="stop-color:#2671BC"/>
			</linearGradient>
			<path style="fill:url(#SVGID_00000167371734305937828150000014084020473713106055_);" d="M102.49,35.45
				c0.45,1.79,1.9,2.78,3.94,2.78c1.39,0,2.7-0.48,3.92-1.42l1.59,2.61c-1.67,1.39-3.55,2.1-5.62,2.1
				c-4.34,0.09-7.78-3.29-7.69-7.35c-0.09-4.06,3.29-7.43,7.35-7.35c3.89,0,6.61,2.87,6.61,6.53c0,0.68-0.09,1.39-0.26,2.1H102.49z
				 M108.87,32.75c-0.03-1.73-1.36-2.84-3.04-2.84c-1.62,0-2.92,1.11-3.35,2.84H108.87z"/>
			
				<linearGradient id="SVGID_00000005242677607824029130000015883489871331443377_" gradientUnits="userSpaceOnUse" x1="121.0317" y1="4.6009" x2="121.0317" y2="72.3956">
				<stop  offset="0" style="stop-color:#70EDFF"/>
				<stop  offset="1" style="stop-color:#2671BC"/>
			</linearGradient>
			<path style="fill:url(#SVGID_00000005242677607824029130000015883489871331443377_);" d="M128.62,27.13l-6.95,14.39h-1.28
				l-6.95-14.39h4.03l3.55,7.95l3.55-7.95H128.62z"/>
			
				<linearGradient id="SVGID_00000000918112890206720950000010154717985574471088_" gradientUnits="userSpaceOnUse" x1="135.7454" y1="4.6009" x2="135.7454" y2="72.3956">
				<stop  offset="0" style="stop-color:#70EDFF"/>
				<stop  offset="1" style="stop-color:#2671BC"/>
			</linearGradient>
			<path style="fill:url(#SVGID_00000000918112890206720950000010154717985574471088_);" d="M142.07,41.18h-3.52v-1.36
				c-1.02,1.05-2.5,1.7-4.28,1.7c-2.98,0-4.85-1.73-4.85-4.2c0-2.53,2.04-4.09,5.31-4.09h3.52v-0.62c0-1.56-0.91-2.47-2.61-2.47
				c-1.45,0-2.47,0.6-3.72,1.93l-1.99-2.36c1.62-1.93,3.66-2.89,6.13-2.89c3.66,0,6.02,2.13,6.02,6.02V41.18z M138.24,35.76h-3.01
				c-1.25,0-1.96,0.48-1.96,1.42c0,0.94,0.79,1.53,2.01,1.53c1.67,0,2.95-1.16,2.95-2.78V35.76z"/>
			
				<linearGradient id="SVGID_00000079460030725751496430000016366388817812259472_" gradientUnits="userSpaceOnUse" x1="149.551" y1="4.6009" x2="149.551" y2="72.3956">
				<stop  offset="0" style="stop-color:#70EDFF"/>
				<stop  offset="1" style="stop-color:#2671BC"/>
			</linearGradient>
			<path style="fill:url(#SVGID_00000079460030725751496430000016366388817812259472_);" d="M154.79,41.18
				c-0.91,0.23-1.79,0.34-2.64,0.34c-3.55,0-5.62-1.76-5.62-5.28v-5.87h-2.21v-3.24h2.21v-3.55h3.83v3.55h3.97v3.24h-3.97v5.53
				c0,1.59,0.79,2.19,2.61,2.19c0.23,0,0.82-0.03,1.82-0.11V41.18z"/>
			
				<linearGradient id="SVGID_00000180350734225346537250000016685419629128068740_" gradientUnits="userSpaceOnUse" x1="163.4692" y1="4.6009" x2="163.4692" y2="72.3956">
				<stop  offset="0" style="stop-color:#70EDFF"/>
				<stop  offset="1" style="stop-color:#2671BC"/>
			</linearGradient>
			<path style="fill:url(#SVGID_00000180350734225346537250000016685419629128068740_);" d="M160.35,35.45
				c0.45,1.79,1.9,2.78,3.94,2.78c1.39,0,2.7-0.48,3.92-1.42l1.59,2.61c-1.67,1.39-3.55,2.1-5.62,2.1
				c-4.34,0.09-7.78-3.29-7.69-7.35c-0.09-4.06,3.29-7.43,7.35-7.35c3.89,0,6.61,2.87,6.61,6.53c0,0.68-0.08,1.39-0.26,2.1H160.35z
				 M166.73,32.75c-0.03-1.73-1.36-2.84-3.04-2.84c-1.62,0-2.92,1.11-3.35,2.84H166.73z"/>
			
				<linearGradient id="SVGID_00000031910391920575540300000006610805577899979438_" gradientUnits="userSpaceOnUse" x1="186.3706" y1="4.6009" x2="186.3706" y2="72.3956">
				<stop  offset="0" style="stop-color:#70EDFF"/>
				<stop  offset="1" style="stop-color:#2671BC"/>
			</linearGradient>
			<path style="fill:url(#SVGID_00000031910391920575540300000006610805577899979438_);" d="M184.44,25.91h-5.99v-3.46h15.83v3.46
				h-6.02v15.27h-3.83V25.91z"/>
			
				<linearGradient id="SVGID_00000175290123932888552610000012253201620108746400_" gradientUnits="userSpaceOnUse" x1="200.7004" y1="4.6009" x2="200.7004" y2="72.3956">
				<stop  offset="0" style="stop-color:#70EDFF"/>
				<stop  offset="1" style="stop-color:#2671BC"/>
			</linearGradient>
			<path style="fill:url(#SVGID_00000175290123932888552610000012253201620108746400_);" d="M197.58,35.45
				c0.45,1.79,1.9,2.78,3.94,2.78c1.39,0,2.7-0.48,3.92-1.42l1.59,2.61c-1.67,1.39-3.55,2.1-5.62,2.1
				c-4.34,0.09-7.78-3.29-7.69-7.35c-0.09-4.06,3.29-7.43,7.35-7.35c3.89,0,6.61,2.87,6.61,6.53c0,0.68-0.09,1.39-0.26,2.1H197.58z
				 M203.96,32.75c-0.03-1.73-1.36-2.84-3.04-2.84c-1.62,0-2.92,1.11-3.35,2.84H203.96z"/>
			
				<linearGradient id="SVGID_00000137113039442700990000000009259725550313109148_" gradientUnits="userSpaceOnUse" x1="216.6772" y1="4.6009" x2="216.6772" y2="72.3956">
				<stop  offset="0" style="stop-color:#70EDFF"/>
				<stop  offset="1" style="stop-color:#2671BC"/>
			</linearGradient>
			<path style="fill:url(#SVGID_00000137113039442700990000000009259725550313109148_);" d="M217.39,26.82
				c2.75,0,4.88,1.31,6.1,3.46l-2.67,2.07c-0.88-1.28-1.9-2.04-3.38-2.04c-2.16,0-3.69,1.65-3.69,3.83c0,2.24,1.53,3.86,3.69,3.86
				c1.45,0,2.47-0.74,3.38-2.01l2.67,2.04c-1.22,2.16-3.38,3.49-6.1,3.49c-4.11,0.09-7.58-3.32-7.52-7.38
				C209.87,30.03,213.22,26.82,217.39,26.82z"/>
			
				<linearGradient id="SVGID_00000029031540170186130550000004952847714172781715_" gradientUnits="userSpaceOnUse" x1="232.7818" y1="4.6009" x2="232.7818" y2="72.3956">
				<stop  offset="0" style="stop-color:#70EDFF"/>
				<stop  offset="1" style="stop-color:#2671BC"/>
			</linearGradient>
			<path style="fill:url(#SVGID_00000029031540170186130550000004952847714172781715_);" d="M239.24,41.18h-3.8v-8.17
				c0-1.62-1.05-2.72-2.61-2.72c-1.56,0-2.67,1.11-2.67,2.72v8.17h-3.83V19.9h3.83v8.43c0.94-0.94,2.3-1.5,3.86-1.5
				c3.18,0,5.22,2.24,5.22,5.65V41.18z"/>
		</g>
	</g>
</g>
</svg>
