<?xml version="1.0" encoding="utf-8"?>
<!-- Generator: Adobe Illustrator 25.4.1, SVG Export Plug-In . SVG Version: 6.00 Build 0)  -->
<svg version="1.1" id="Layer_1" xmlns="http://www.w3.org/2000/svg" xmlns:xlink="http://www.w3.org/1999/xlink" x="0px" y="0px"
	 viewBox="0 0 2000 2000" style="enable-background:new 0 0 2000 2000;" xml:space="preserve">
<style type="text/css">
	.st0{display:none;fill:#1A1F2C;}
	.st1{display:none;}
	.st2{display:inline;}
	.st3{display:inline;fill:none;stroke:#000000;stroke-width:6;stroke-miterlimit:10;}
	.st4{fill:url(#SVGID_1_);}
	.st5{fill:url(#SVGID_00000040577135092459000590000010741335296571791524_);}
	.st6{fill:url(#SVGID_00000131358464124133410820000001867027172896997808_);}
	.st7{fill:url(#SVGID_00000034788856415891223100000001488693864889674396_);}
	.st8{fill:url(#SVGID_00000116232283035026182180000001497181416491997337_);}
	.st9{fill:url(#SVGID_00000122681095109240207240000015418570833190477955_);}
	.st10{fill:url(#SVGID_00000176762042577154523300000014585083125129831838_);}
	.st11{fill:url(#SVGID_00000101077258696169461980000017567825771283194544_);}
	.st12{fill:url(#SVGID_00000098925181189810141580000006048422554588735913_);}
	.st13{fill:url(#SVGID_00000139293422821167518870000005905392497768088762_);}
	.st14{fill:url(#SVGID_00000057114566582320878350000006271871627724570796_);}
	.st15{fill:url(#SVGID_00000082327079358576693010000009154221084604452284_);}
	.st16{fill:url(#SVGID_00000103232565946702886310000017838085881065517751_);}
	.st17{fill:url(#SVGID_00000084498869324103331880000011559812165250327697_);}
	.st18{fill:url(#SVGID_00000032620846314581798360000009082441538802621098_);}
	.st19{fill:url(#SVGID_00000015322292663304210780000006646111976317265070_);}
	.st20{fill:url(#SVGID_00000090993535546741392790000012886795349700452278_);}
	.st21{fill:url(#SVGID_00000003084576061493477320000013122505356091767228_);}
	.st22{fill:url(#SVGID_00000072246085777229858390000014355083403357407669_);}
	.st23{fill:url(#SVGID_00000043444506977113601120000007697991045091959432_);}
	.st24{fill:url(#SVGID_00000076572808075814744960000007580029032187293630_);}
	.st25{fill:url(#SVGID_00000004504270462111297990000017641173927940810397_);}
	.st26{fill:url(#SVGID_00000104699668814950739700000009589110471065282222_);}
	.st27{fill:#1A1F2C;}
	.st28{fill:url(#SVGID_00000065759485234958878480000014168287330526534035_);}
	.st29{fill:url(#SVGID_00000172435303293679588330000000300008996900144821_);}
	.st30{fill:url(#SVGID_00000021822463473793821190000005870743397491622582_);}
	.st31{fill:url(#SVGID_00000034778585552270714150000000151067550725125507_);}
	.st32{fill:url(#SVGID_00000101093657485262585760000012846724438479499173_);}
	.st33{fill:url(#SVGID_00000006667840528959767150000001685827692373102490_);}
	.st34{fill:url(#SVGID_00000144319368460765084400000004700405726485755580_);}
	.st35{fill:url(#SVGID_00000078015401771043940020000002561247149597908360_);}
	.st36{fill:url(#SVGID_00000026877953815375307900000008526485658964882330_);}
	.st37{fill:url(#SVGID_00000056399871594034397600000016107348846253541051_);}
	.st38{fill:url(#SVGID_00000152237616664022813510000001760248933232065420_);}
	.st39{fill:url(#SVGID_00000098217970062194263080000012706532235259806094_);}
	.st40{fill:url(#SVGID_00000084490770510695679220000013748716989917429913_);}
	.st41{fill:url(#SVGID_00000134942672263623604610000001051258136226481574_);}
	.st42{fill:url(#SVGID_00000039134991149022445000000002198115449628172983_);}
	.st43{fill:url(#SVGID_00000107567446116478421580000015444271293618492851_);}
	.st44{fill:url(#SVGID_00000023254360457318518700000014620157037224393602_);}
	.st45{fill:url(#SVGID_00000119084363533551605050000007858502169130494630_);}
	.st46{fill:url(#SVGID_00000181064511928386265650000000480073624293098674_);}
	.st47{fill:url(#SVGID_00000072274646639610323350000003261091811752837027_);}
	.st48{fill:url(#SVGID_00000021101434807606725530000012710666193415336634_);}
	.st49{fill:url(#SVGID_00000078044897725911958570000011341802088191777443_);}
	.st50{fill:url(#SVGID_00000115495255472767141750000015852757857775371144_);}
	.st51{fill:url(#SVGID_00000054247943975568487660000011000671189816552333_);}
	.st52{fill:url(#SVGID_00000079468705440505557610000004683833014765266071_);}
	.st53{fill:url(#SVGID_00000182522411953455790610000006520930937629358480_);}
	.st54{fill:url(#SVGID_00000093175326413909008360000000308783173522025101_);}
	.st55{fill:url(#SVGID_00000139999898284885984510000006816897833246719916_);}
	.st56{fill:url(#SVGID_00000160891945270912938170000009595773831469926799_);}
	.st57{fill:url(#SVGID_00000042718026488824138580000016775079846020698773_);}
	.st58{fill:url(#SVGID_00000139261941569958155270000003972538194984786340_);}
	.st59{fill:url(#SVGID_00000064312888991593719620000005872006198157785759_);}
	.st60{fill:url(#SVGID_00000149373481140429465930000008222811507182076862_);}
	.st61{fill:url(#SVGID_00000033333710389824513150000005939404429580162211_);}
	.st62{fill:url(#SVGID_00000049198420108784591990000004167110633586841490_);}
	.st63{fill:url(#SVGID_00000181056969312398706500000005842692042259611558_);}
	.st64{fill:url(#SVGID_00000011724760512450452140000008074867607107671437_);}
	.st65{fill:url(#SVGID_00000028285409481838249370000005201539665036294579_);}
	.st66{fill:url(#SVGID_00000111191924139527279040000011929526860197438625_);}
	.st67{fill:url(#SVGID_00000013164733378292075860000010884356114390807687_);}
	.st68{fill:url(#SVGID_00000036936984023728832100000004909850700647245470_);}
	.st69{fill:url(#SVGID_00000165236745589831264570000010879070686891000707_);}
	.st70{fill:url(#SVGID_00000062897498371345052100000009641119216400463239_);}
	.st71{fill:url(#SVGID_00000029029617114057593000000002715339350641969817_);}
	.st72{fill:url(#SVGID_00000031916425076329377770000011427124170364761003_);}
	.st73{fill:url(#SVGID_00000081635338356394018990000018060281183369835438_);}
	.st74{fill:url(#SVGID_00000124139424692430192340000000879680008375163542_);}
	.st75{fill:url(#SVGID_00000147899119100175409500000000071607550150252964_);}
	.st76{fill:url(#SVGID_00000155830140455953468660000016527929440277203887_);}
	.st77{fill:url(#SVGID_00000044175767832607125900000008233646865069217198_);}
	.st78{fill:url(#SVGID_00000042734424312306440670000012440950657818392757_);}
	.st79{fill:url(#SVGID_00000110456322405176160650000012314216345647303299_);}
	.st80{fill:url(#SVGID_00000070101503483096601490000007641881864148505473_);}
	.st81{fill:url(#SVGID_00000109733375506892952330000015137573040728211589_);}
	.st82{fill:url(#SVGID_00000150822401267946581300000003687450867505625004_);}
	.st83{fill:url(#SVGID_00000037672213683127006570000000999899339732279957_);}
	.st84{fill:url(#SVGID_00000109022167401989591870000005960894116352933814_);}
	.st85{fill:url(#SVGID_00000044882379774678612860000008067292549693995921_);}
	.st86{fill:url(#SVGID_00000047020114573286476970000010100114504025405334_);}
	.st87{fill:url(#SVGID_00000164477693543223439660000012591310785130777516_);}
	.st88{fill:url(#SVGID_00000035503329026156815260000007438095578291410879_);}
	.st89{fill:url(#SVGID_00000041255256264074651960000005304127293153183406_);}
	.st90{fill:url(#SVGID_00000122710371591848305030000018292380093305819799_);}
	.st91{fill:url(#SVGID_00000073691527959777910020000000275631837021119400_);}
	.st92{fill:url(#SVGID_00000161612135603741743940000015874480170900286654_);}
	.st93{fill:url(#SVGID_00000031925096418029815750000008257337170645884802_);}
	.st94{fill:url(#SVGID_00000104705647734117121680000015421561500136122030_);}
	.st95{fill:url(#SVGID_00000155147837573175063640000013260382859073268411_);}
	.st96{fill:url(#SVGID_00000176044707739134177020000012626215387703195529_);}
	.st97{fill:url(#SVGID_00000140715440345908451530000007556570993191521969_);}
	.st98{fill:url(#SVGID_00000046310235321507936520000012827559436944191382_);}
	.st99{fill:url(#SVGID_00000145747392817677569480000015607281523026840757_);}
	.st100{fill:url(#SVGID_00000116210269346840150150000017638848057981126273_);}
	.st101{fill:url(#SVGID_00000152980005099115470700000012188809794665640866_);}
	.st102{fill:url(#SVGID_00000099648518760690369050000007870108517006369214_);}
	.st103{fill:url(#SVGID_00000131358446809809967110000015101196352500836535_);}
	.st104{fill:url(#SVGID_00000176022968562617300230000007835468085881535676_);}
	.st105{fill:url(#SVGID_00000149342620458071519180000011722077555203694512_);}
	.st106{fill:url(#SVGID_00000111190794019389398020000002060287368290551460_);}
	.st107{fill:url(#SVGID_00000135656043959070894120000011248777544400893322_);}
	.st108{fill:url(#SVGID_00000160876463472045299770000013844957629676619180_);}
	.st109{fill:url(#SVGID_00000018928983360169889890000008633949184591902341_);}
	.st110{fill:url(#SVGID_00000002372404762065123000000015768275608778894518_);}
	.st111{fill:url(#SVGID_00000034771371278648955840000000166554483587304120_);}
	.st112{fill:url(#SVGID_00000008127185611882423610000000679861026590022534_);}
	.st113{fill:url(#SVGID_00000089557067877867717910000004340637459687939248_);}
	.st114{fill:url(#SVGID_00000052067614167785745700000017296922205013990043_);}
	.st115{fill:url(#SVGID_00000183961528667299839390000016619567496780199351_);}
	.st116{fill:url(#SVGID_00000000919557340424615700000013475616133372519823_);}
	.st117{fill:url(#SVGID_00000008133728450517567820000018270125443572127882_);}
	.st118{fill:url(#SVGID_00000118392674741624723620000004252672257360637573_);}
	.st119{fill:url(#SVGID_00000166655712786737823180000018415716195782171027_);}
	.st120{fill:url(#SVGID_00000024688204676250319730000014920833544027388053_);}
	.st121{fill:url(#SVGID_00000103250399821179951300000000946585321160299189_);}
	.st122{fill:url(#SVGID_00000121281013987416458570000008904912854971671469_);}
	.st123{fill:url(#SVGID_00000124873986935390711460000002280652052154501780_);}
	.st124{fill:url(#SVGID_00000103227236620579534510000008975228040370311300_);}
	.st125{fill:url(#SVGID_00000102546223485578021250000000990572412318415260_);}
	.st126{fill:url(#SVGID_00000176745860632591750570000015798345586882408127_);}
	.st127{fill:url(#SVGID_00000146484593610700222100000010252892382712559285_);}
	.st128{fill:url(#SVGID_00000046298015407567507220000004270025683964845237_);}
	.st129{fill:url(#SVGID_00000095337094083769189620000000062320075732657547_);}
	.st130{fill:url(#SVGID_00000038380543851263383800000015671068550972125369_);}
	.st131{fill:url(#SVGID_00000090993898001162200260000013781645637946016397_);}
	.st132{fill:url(#SVGID_00000060727679000910922780000007383059800729000361_);}
	.st133{fill:url(#SVGID_00000091703663499512787000000006668395956607537326_);}
	.st134{fill:url(#SVGID_00000141416201910525494040000017328108082582357924_);}
	.st135{fill:url(#SVGID_00000114759344589910279720000015943500762779598776_);}
	.st136{fill:url(#SVGID_00000106105490566171186890000010504885012802334886_);}
	.st137{fill:url(#SVGID_00000018932184641362888660000011439408568549956227_);}
	.st138{fill:url(#SVGID_00000030467178053978732060000009534844447270752171_);}
	.st139{fill:url(#SVGID_00000062885201656168776010000004917906212376045194_);}
	.st140{fill:url(#SVGID_00000080889378175877276550000005917010569309007529_);}
	.st141{fill:url(#SVGID_00000139277578657016874510000003948573077469849752_);}
	.st142{fill:url(#SVGID_00000164500496559351876000000015437050012555352469_);}
	.st143{fill:url(#SVGID_00000149358980954433896850000013188434230865374870_);}
	.st144{fill:url(#SVGID_00000002371628839814656890000004917578060654567350_);}
	.st145{fill:url(#SVGID_00000124883495488303858930000004465877736120088965_);}
	.st146{fill:url(#SVGID_00000005267192681720544350000003231307785652090017_);}
	.st147{fill:url(#SVGID_00000081614743185378185260000001306217825320016316_);}
	.st148{fill:url(#SVGID_00000166664688130890514290000004506461519008207011_);}
	.st149{fill:url(#SVGID_00000033335982282816483850000001266169398051993782_);}
	.st150{fill:url(#SVGID_00000179608716034083088310000005630257329155180947_);}
	.st151{fill:url(#SVGID_00000143605951281570272030000007204650121536712093_);}
	.st152{fill:url(#SVGID_00000123419219023156269260000014599909341924240037_);}
	.st153{fill:url(#SVGID_00000044856214299100297090000011742113365441975960_);}
</style>
<rect class="st27" width="2000" height="2000"/>
<g>
	<g>
		<g>
			<linearGradient id="SVGID_1_" gradientUnits="userSpaceOnUse" x1="386.6907" y1="786.1454" x2="386.6907" y2="1341.4697">
				<stop  offset="0" style="stop-color:#70EDFF"/>
				<stop  offset="1" style="stop-color:#2671BC"/>
			</linearGradient>
			<path class="st4" d="M419.35,1085.77l-32.54-50.91l-32.54,50.91h-35.8l50.91-78.1l-47.88-75.31h35.8l29.52,48.35l29.29-48.35
				h35.56l-47.18,75.31l50.44,78.1H419.35z"/>
			
				<linearGradient id="SVGID_00000158025817173676281330000018036892371482158475_" gradientUnits="userSpaceOnUse" x1="489.4315" y1="786.1454" x2="489.4315" y2="1341.4697">
				<stop  offset="0" style="stop-color:#70EDFF"/>
				<stop  offset="1" style="stop-color:#2671BC"/>
			</linearGradient>
			<path style="fill:url(#SVGID_00000158025817173676281330000018036892371482158475_);" d="M473.74,911.43h31.38v174.34h-31.38
				V911.43z"/>
			
				<linearGradient id="SVGID_00000046332798704336273820000008876616801933776318_" gradientUnits="userSpaceOnUse" x1="586.9371" y1="786.1454" x2="586.9371" y2="1341.4697">
				<stop  offset="0" style="stop-color:#70EDFF"/>
				<stop  offset="1" style="stop-color:#2671BC"/>
			</linearGradient>
			<path style="fill:url(#SVGID_00000046332798704336273820000008876616801933776318_);" d="M561.38,1038.81
				c3.72,14.64,15.57,22.78,32.31,22.78c11.39,0,22.08-3.95,32.08-11.62l13.02,21.39c-13.71,11.39-29.06,17.2-46.02,17.2
				c-35.57,0.7-63.69-26.96-62.99-60.2c-0.7-33.24,26.96-60.9,60.2-60.2c31.85,0,54.16,23.48,54.16,53.46
				c0,5.58-0.7,11.39-2.09,17.2H561.38z M613.67,1016.73c-0.23-14.18-11.16-23.24-24.87-23.24c-13.25,0-23.94,9.07-27.43,23.24
				H613.67z"/>
			
				<linearGradient id="SVGID_00000122694797166401980620000007761076029726746047_" gradientUnits="userSpaceOnUse" x1="713.2776" y1="786.1454" x2="713.2776" y2="1341.4697">
				<stop  offset="0" style="stop-color:#70EDFF"/>
				<stop  offset="1" style="stop-color:#2671BC"/>
			</linearGradient>
			<path style="fill:url(#SVGID_00000122694797166401980620000007761076029726746047_);" d="M775.46,970.71l-56.95,117.85h-10.46
				L651.1,970.71h33.01l29.06,65.09l29.06-65.09H775.46z"/>
			
				<linearGradient id="SVGID_00000115499260370779071980000013753773640527481249_" gradientUnits="userSpaceOnUse" x1="833.8015" y1="786.1454" x2="833.8015" y2="1341.4697">
				<stop  offset="0" style="stop-color:#70EDFF"/>
				<stop  offset="1" style="stop-color:#2671BC"/>
			</linearGradient>
			<path style="fill:url(#SVGID_00000115499260370779071980000013753773640527481249_);" d="M885.64,1085.77h-28.82v-11.16
				c-8.37,8.6-20.45,13.95-35.1,13.95c-24.41,0-39.75-14.18-39.75-34.4c0-20.69,16.74-33.47,43.47-33.47h28.82v-5.11
				c0-12.79-7.44-20.22-21.38-20.22c-11.86,0-20.22,4.88-30.45,15.81l-16.27-19.29c13.25-15.81,29.99-23.71,50.21-23.71
				c29.98,0,49.28,17.43,49.28,49.28V1085.77z M854.26,1041.37h-24.64c-10.23,0-16.04,3.95-16.04,11.62s6.51,12.55,16.5,12.55
				c13.72,0,24.17-9.53,24.17-22.78V1041.37z"/>
			
				<linearGradient id="SVGID_00000018945409770544943600000005114219602773469629_" gradientUnits="userSpaceOnUse" x1="946.887" y1="786.1454" x2="946.887" y2="1341.4697">
				<stop  offset="0" style="stop-color:#70EDFF"/>
				<stop  offset="1" style="stop-color:#2671BC"/>
			</linearGradient>
			<path style="fill:url(#SVGID_00000018945409770544943600000005114219602773469629_);" d="M989.77,1085.77
				c-7.44,1.86-14.64,2.79-21.62,2.79c-29.06,0-46.02-14.41-46.02-43.23V997.2H904v-26.5h18.13v-29.06h31.38v29.06h32.54v26.5
				h-32.54v45.33c0,13.02,6.51,17.9,21.39,17.9c1.86,0,6.74-0.23,14.88-0.93V1085.77z"/>
			
				<linearGradient id="SVGID_00000039817607739641773840000002596760030037411518_" gradientUnits="userSpaceOnUse" x1="1060.8947" y1="786.1454" x2="1060.8947" y2="1341.4697">
				<stop  offset="0" style="stop-color:#70EDFF"/>
				<stop  offset="1" style="stop-color:#2671BC"/>
			</linearGradient>
			<path style="fill:url(#SVGID_00000039817607739641773840000002596760030037411518_);" d="M1035.33,1038.81
				c3.72,14.64,15.57,22.78,32.31,22.78c11.39,0,22.08-3.95,32.08-11.62l13.02,21.39c-13.72,11.39-29.06,17.2-46.03,17.2
				c-35.56,0.7-63.69-26.96-62.99-60.2c-0.7-33.24,26.96-60.9,60.2-60.2c31.84,0,54.16,23.48,54.16,53.46
				c0,5.58-0.7,11.39-2.09,17.2H1035.33z M1087.63,1016.73c-0.23-14.18-11.16-23.24-24.87-23.24c-13.25,0-23.94,9.07-27.43,23.24
				H1087.63z"/>
			
				<linearGradient id="SVGID_00000013909658270278603010000016391519300688710792_" gradientUnits="userSpaceOnUse" x1="1248.486" y1="786.1454" x2="1248.486" y2="1341.4697">
				<stop  offset="0" style="stop-color:#70EDFF"/>
				<stop  offset="1" style="stop-color:#2671BC"/>
			</linearGradient>
			<path style="fill:url(#SVGID_00000013909658270278603010000016391519300688710792_);" d="M1232.68,960.71h-49.05v-28.36h129.71
				v28.36h-49.28v125.06h-31.38V960.71z"/>
			
				<linearGradient id="SVGID_00000097494996250491375650000005844306044799909540_" gradientUnits="userSpaceOnUse" x1="1365.8651" y1="786.1454" x2="1365.8651" y2="1341.4697">
				<stop  offset="0" style="stop-color:#70EDFF"/>
				<stop  offset="1" style="stop-color:#2671BC"/>
			</linearGradient>
			<path style="fill:url(#SVGID_00000097494996250491375650000005844306044799909540_);" d="M1340.3,1038.81
				c3.72,14.64,15.57,22.78,32.31,22.78c11.39,0,22.08-3.95,32.08-11.62l13.02,21.39c-13.71,11.39-29.06,17.2-46.02,17.2
				c-35.57,0.7-63.69-26.96-62.99-60.2c-0.7-33.24,26.96-60.9,60.2-60.2c31.85,0,54.16,23.48,54.16,53.46
				c0,5.58-0.7,11.39-2.09,17.2H1340.3z M1392.6,1016.73c-0.23-14.18-11.16-23.24-24.87-23.24c-13.25,0-23.94,9.07-27.43,23.24
				H1392.6z"/>
			
				<linearGradient id="SVGID_00000060744747753061404100000007343306788671806107_" gradientUnits="userSpaceOnUse" x1="1496.7356" y1="786.1454" x2="1496.7356" y2="1341.4697">
				<stop  offset="0" style="stop-color:#70EDFF"/>
				<stop  offset="1" style="stop-color:#2671BC"/>
			</linearGradient>
			<path style="fill:url(#SVGID_00000060744747753061404100000007343306788671806107_);" d="M1502.55,968.15
				c22.55,0,39.98,10.69,49.98,28.36l-21.85,16.97c-7.2-10.46-15.57-16.74-27.66-16.74c-17.67,0-30.22,13.48-30.22,31.38
				c0,18.36,12.55,31.61,30.22,31.61c11.86,0,20.22-6.04,27.66-16.5l21.85,16.74c-9.99,17.67-27.66,28.59-49.98,28.59
				c-33.7,0.7-62.06-27.2-61.6-60.44C1440.95,994.41,1468.38,968.15,1502.55,968.15z"/>
			
				<linearGradient id="SVGID_00000021114599066151519720000000969826176761054864_" gradientUnits="userSpaceOnUse" x1="1628.6519" y1="786.1454" x2="1628.6519" y2="1341.4697">
				<stop  offset="0" style="stop-color:#70EDFF"/>
				<stop  offset="1" style="stop-color:#2671BC"/>
			</linearGradient>
			<path style="fill:url(#SVGID_00000021114599066151519720000000969826176761054864_);" d="M1681.53,1085.77h-31.15v-66.94
				c0-13.25-8.6-22.32-21.38-22.32c-12.79,0-21.85,9.07-21.85,22.32v66.94h-31.38V911.43h31.38v69.04
				c7.67-7.67,18.83-12.32,31.61-12.32c26.04,0,42.77,18.36,42.77,46.26V1085.77z"/>
		</g>
	</g>
</g>
</svg>
