<?xml version="1.0" encoding="utf-8"?>
<!-- Generator: Adobe Illustrator 25.4.1, SVG Export Plug-In . SVG Version: 6.00 Build 0)  -->
<svg version="1.1" id="Layer_1" xmlns="http://www.w3.org/2000/svg" xmlns:xlink="http://www.w3.org/1999/xlink" x="0px" y="0px"
	 viewBox="0 0 240 240" style="enable-background:new 0 0 240 240;" xml:space="preserve">
<style type="text/css">
	.st0{display:none;fill:#1A1F2C;}
	.st1{display:none;}
	.st2{display:inline;}
	.st3{display:inline;fill:none;stroke:#000000;stroke-width:6;stroke-miterlimit:10;}
	.st4{fill:url(#SVGID_1_);}
	.st5{fill:url(#SVGID_00000020392045995933432190000017187782343979472552_);}
	.st6{fill:url(#SVGID_00000072965962266142925410000000612375100114440334_);}
	.st7{fill:url(#SVGID_00000101816809326683213140000001731334464802945420_);}
	.st8{fill:url(#SVGID_00000075873206677331665680000010670930801568459193_);}
	.st9{fill:url(#SVGID_00000075864946173393475050000004549753429051026616_);}
	.st10{fill:url(#SVGID_00000003086144110517217820000004129670368576023217_);}
	.st11{fill:url(#SVGID_00000049212928012257416050000008893392649707098241_);}
	.st12{fill:url(#SVGID_00000161618770104410414050000015471597983700224188_);}
	.st13{fill:url(#SVGID_00000069388077827040988710000009217430370498961592_);}
	.st14{fill:url(#SVGID_00000030458060938945506910000013163451824630936742_);}
	.st15{fill:url(#SVGID_00000086681931578724294450000013010822259076678806_);}
	.st16{fill:url(#SVGID_00000077290850700406130500000012167331083447847351_);}
	.st17{fill:url(#SVGID_00000141424427575672540420000000646662382716030611_);}
	.st18{fill:url(#SVGID_00000169525344235422202790000009737533346782437555_);}
	.st19{fill:url(#SVGID_00000084507555875900649810000015180100698603508630_);}
	.st20{fill:url(#SVGID_00000168834185775502746100000006132237642107385230_);}
	.st21{fill:url(#SVGID_00000141436364918260640960000005636400061473954217_);}
	.st22{fill:url(#SVGID_00000176735225953733428840000014158125469780672659_);}
	.st23{fill:url(#SVGID_00000153692891592419309850000014910279656521136774_);}
	.st24{fill:url(#SVGID_00000019641491669033886370000003973244740730771348_);}
	.st25{fill:url(#SVGID_00000023965394225699829060000014394609059608207761_);}
	.st26{fill:url(#SVGID_00000052794941564532969680000016472180714625169327_);}
	.st27{fill:#1A1F2C;}
	.st28{fill:url(#SVGID_00000061459616743396585860000013292659507395915657_);}
	.st29{fill:url(#SVGID_00000168822650566899210380000004863821136484100756_);}
	.st30{fill:url(#SVGID_00000121269327387397175050000016363284821284497816_);}
	.st31{fill:url(#SVGID_00000083783782462149483570000008332356334762529920_);}
	.st32{fill:url(#SVGID_00000139265767424362433420000011739386472514279312_);}
	.st33{fill:url(#SVGID_00000178192202877890733350000005588707136234235548_);}
	.st34{fill:url(#SVGID_00000176737511460802349990000010460397473252564661_);}
	.st35{fill:url(#SVGID_00000013910058897800485470000005876605271329559197_);}
	.st36{fill:url(#SVGID_00000080205132353819509880000011807381014232878232_);}
	.st37{fill:url(#SVGID_00000034075217723972701470000009435507296919454139_);}
	.st38{fill:url(#SVGID_00000078026695343312602930000004414455902811247769_);}
	.st39{fill:url(#SVGID_00000172412330864178089100000014647032737021380010_);}
	.st40{fill:url(#SVGID_00000145027165197097469460000000328544207778941573_);}
	.st41{fill:url(#SVGID_00000101083980572728679880000011963048847934738576_);}
	.st42{fill:url(#SVGID_00000144315662803852945950000005439047654073974925_);}
	.st43{fill:url(#SVGID_00000152946911634038504770000014448028012886098359_);}
	.st44{fill:url(#SVGID_00000075154085858848491540000000460262011268216755_);}
	.st45{fill:url(#SVGID_00000140015953542148151630000015588028792491922349_);}
	.st46{fill:url(#SVGID_00000057135464487511856320000007917075013379999393_);}
	.st47{fill:url(#SVGID_00000011735436572639127510000009238587623488259004_);}
	.st48{fill:url(#SVGID_00000124876735038128285450000011595023335674911873_);}
	.st49{fill:url(#SVGID_00000112601428193505346540000006180069253613696685_);}
	.st50{fill:url(#SVGID_00000015312642033821089070000010337808318769531532_);}
	.st51{fill:url(#SVGID_00000052784077716965808370000016259678011840321444_);}
	.st52{fill:url(#SVGID_00000067212416056087630240000005774392877948516747_);}
	.st53{fill:url(#SVGID_00000132783219054584026730000003825083607521007538_);}
	.st54{fill:url(#SVGID_00000017502992884238790700000011179505994948084156_);}
	.st55{fill:url(#SVGID_00000084514670485937254060000007836987503114006457_);}
	.st56{fill:url(#SVGID_00000065033267327845893830000014905897225843015055_);}
	.st57{fill:url(#SVGID_00000029734113545316048740000005897060348944826294_);}
	.st58{fill:url(#SVGID_00000073710534677037610120000006859740640609173903_);}
	.st59{fill:url(#SVGID_00000154414301967303661510000009264147077212640431_);}
	.st60{fill:url(#SVGID_00000145769377733885839680000016540134577273964478_);}
	.st61{fill:url(#SVGID_00000116920807184959687900000008194862809522330789_);}
	.st62{fill:url(#SVGID_00000165940355975441703750000012309362677334034845_);}
	.st63{fill:url(#SVGID_00000167386308595851269910000016658040871791242424_);}
	.st64{fill:url(#SVGID_00000091008218400067983340000006241539208823742888_);}
	.st65{fill:url(#SVGID_00000144313422864618949040000008146545785726552192_);}
	.st66{fill:url(#SVGID_00000013898959623000564990000018000263504652914865_);}
	.st67{fill:url(#SVGID_00000072279261186414360520000016776858257890369684_);}
	.st68{fill:url(#SVGID_00000106107274704787360410000007620945887798536631_);}
	.st69{fill:url(#SVGID_00000160893843324314224710000007257880564158238100_);}
	.st70{fill:url(#SVGID_00000145046722328436568130000006700980328840140477_);}
	.st71{fill:url(#SVGID_00000143599289115124686710000012290708841301052811_);}
	.st72{fill:url(#SVGID_00000037666756781150990320000000250449521743987616_);}
	.st73{fill:url(#SVGID_00000127747698442652849570000016303895956424915855_);}
	.st74{fill:url(#SVGID_00000174578092993886410510000004038507620407304075_);}
	.st75{fill:url(#SVGID_00000182509924539008188490000017762497428152494518_);}
	.st76{fill:url(#SVGID_00000113353591330672496620000008348525876376415892_);}
	.st77{fill:url(#SVGID_00000028285844915244033880000016037767865589363647_);}
	.st78{fill:url(#SVGID_00000054976494289375537080000008134402914897677720_);}
	.st79{fill:url(#SVGID_00000078730841254339130100000002037147858941265328_);}
	.st80{fill:url(#SVGID_00000168092922839138840750000000045603105383190921_);}
	.st81{fill:url(#SVGID_00000072977536501824239850000004787914219144721560_);}
	.st82{fill:url(#SVGID_00000098183579127002209650000012258764615733330337_);}
	.st83{fill:url(#SVGID_00000147194671134282132920000007418760982808422041_);}
	.st84{fill:url(#SVGID_00000114034186816199577690000016966352368845483917_);}
	.st85{fill:url(#SVGID_00000128483567817553163350000011723357935343133570_);}
	.st86{fill:url(#SVGID_00000047764372951677425150000016643806464571023778_);}
	.st87{fill:url(#SVGID_00000067229620936594415520000000376847067083306151_);}
	.st88{fill:url(#SVGID_00000125578671377362918090000006111572929268939926_);}
	.st89{fill:url(#SVGID_00000183934581549306382170000013491529828109258631_);}
	.st90{fill:url(#SVGID_00000096054374168756124990000004889015458736703146_);}
	.st91{fill:url(#SVGID_00000077296353078316063230000011736863238087406741_);}
	.st92{fill:url(#SVGID_00000050650240476504230940000006836650717299320477_);}
	.st93{fill:url(#SVGID_00000032625080573924472270000002357757984419892104_);}
	.st94{fill:url(#SVGID_00000178175926350151879880000015845005225995151252_);}
	.st95{fill:url(#SVGID_00000127739569670091290300000014955390272413185428_);}
	.st96{fill:url(#SVGID_00000137091327359729178770000008856295922376682384_);}
	.st97{fill:url(#SVGID_00000064343257107788543850000000635506930873246355_);}
	.st98{fill:url(#SVGID_00000098908109106179059390000007609342940959641523_);}
	.st99{fill:url(#SVGID_00000124867502521532147100000001912843339088115609_);}
	.st100{fill:url(#SVGID_00000041273868572632091060000017083705621861171342_);}
	.st101{fill:url(#SVGID_00000078739819750392351250000016742918240071136189_);}
	.st102{fill:url(#SVGID_00000097493020982929720220000007335973002811179415_);}
	.st103{fill:url(#SVGID_00000048465397308431254200000014183348707563202988_);}
	.st104{fill:url(#SVGID_00000078732391930096574010000018228326043456723345_);}
	.st105{fill:url(#SVGID_00000037674382439432491970000013363861674399757731_);}
	.st106{fill:url(#SVGID_00000158012429690353932100000013219362518289573020_);}
	.st107{fill:url(#SVGID_00000062174080039471913740000000484001165119716228_);}
	.st108{fill:url(#SVGID_00000170987329102294003080000007782732525538209933_);}
	.st109{fill:url(#SVGID_00000059311964705757416470000008365288405910642096_);}
	.st110{fill:url(#SVGID_00000179603931680895779900000017236704158817844906_);}
	.st111{fill:url(#SVGID_00000087398642106825821670000007907522368271790475_);}
	.st112{fill:url(#SVGID_00000079458789546243226470000018238002191290438833_);}
	.st113{fill:url(#SVGID_00000159454335783926726770000016769080262641441416_);}
	.st114{fill:url(#SVGID_00000180339354810501691820000007892640020685629854_);}
	.st115{fill:url(#SVGID_00000169539519323945554180000017808048543242372017_);}
	.st116{fill:url(#SVGID_00000115508040871616605400000009267433384000391341_);}
	.st117{fill:url(#SVGID_00000005961160288509770710000005692420832724362658_);}
	.st118{fill:url(#SVGID_00000106120803062589513280000007847777452892928908_);}
	.st119{fill:url(#SVGID_00000170254300366344643360000001776870552231460285_);}
	.st120{fill:url(#SVGID_00000048470058470457331010000002804799854614601874_);}
	.st121{fill:url(#SVGID_00000114071652325604241810000015138132873162288022_);}
	.st122{fill:url(#SVGID_00000013891290732181370920000007548124788217544366_);}
	.st123{fill:url(#SVGID_00000132772238549939496730000009945804545344364684_);}
	.st124{fill:url(#SVGID_00000132065578536748386160000012559883121758168746_);}
	.st125{fill:url(#SVGID_00000012457143170110002570000007039081603130645392_);}
	.st126{fill:url(#SVGID_00000095332728427440180240000017709233723454756254_);}
	.st127{fill:url(#SVGID_00000027566124521011668940000015358156714608286342_);}
	.st128{fill:url(#SVGID_00000012461022946813304470000015154062248412626087_);}
	.st129{fill:url(#SVGID_00000033334098501360858330000002989341814644465542_);}
	.st130{fill:url(#SVGID_00000140714748447533376780000014651160648468231049_);}
	.st131{fill:url(#SVGID_00000049915652880064560440000000730866696821388440_);}
	.st132{fill:url(#SVGID_00000151540650732686945960000001145672901718827442_);}
	.st133{fill:url(#SVGID_00000065063600049499232460000010579299414203045026_);}
	.st134{fill:url(#SVGID_00000178927364549409181650000006885819462461940922_);}
	.st135{fill:url(#SVGID_00000172428995095340969630000007288186202112163737_);}
	.st136{fill:url(#SVGID_00000145766235866948596810000015043176857684306573_);}
	.st137{fill:url(#SVGID_00000178167889431383505210000013241455877784878983_);}
	.st138{fill:url(#SVGID_00000168823923357966215320000011737076844458036635_);}
	.st139{fill:url(#SVGID_00000116956794590150331690000010860090879227985063_);}
	.st140{fill:url(#SVGID_00000021824014746180736520000003848198668886082689_);}
	.st141{fill:url(#SVGID_00000114773036634254898930000008046991282955129248_);}
	.st142{fill:url(#SVGID_00000053544589030537743330000007827259615021193097_);}
	.st143{fill:url(#SVGID_00000044176510055677606300000014805678485221794491_);}
	.st144{fill:url(#SVGID_00000035507698245639951280000010831583313690103722_);}
	.st145{fill:url(#SVGID_00000137109103228700516920000001927926322782845572_);}
	.st146{fill:url(#SVGID_00000161603213372159601340000009135084642400593556_);}
	.st147{fill:url(#SVGID_00000105406440324912994930000005106602175584501127_);}
	.st148{fill:url(#SVGID_00000122689266682222923420000004879197913290821305_);}
	.st149{fill:url(#SVGID_00000111880826456623321380000006456412376513875374_);}
	.st150{fill:url(#SVGID_00000073684304804450744900000000675685269430378884_);}
	.st151{fill:url(#SVGID_00000160162510417374284380000013498825914086994816_);}
	.st152{fill:url(#SVGID_00000147213896769427710090000012667735779082319234_);}
	.st153{fill:url(#SVGID_00000146483761326638790910000005293959397108069776_);}
</style>
<rect class="st27" width="240" height="240"/>
<g>
	<g>
		<g>
			<linearGradient id="SVGID_1_" gradientUnits="userSpaceOnUse" x1="12.0124" y1="82.3458" x2="12.0124" y2="180.1238">
				<stop  offset="0" style="stop-color:#70EDFF"/>
				<stop  offset="1" style="stop-color:#2671BC"/>
			</linearGradient>
			<path class="st4" d="M17.76,135.1l-5.73-8.96L6.3,135.1H0l8.96-13.75l-8.43-13.26h6.3l5.2,8.51l5.16-8.51h6.26l-8.31,13.26
				l8.88,13.75H17.76z"/>
			
				<linearGradient id="SVGID_00000002376636353951082710000001472844565933803453_" gradientUnits="userSpaceOnUse" x1="30.1024" y1="82.3458" x2="30.1024" y2="180.1238">
				<stop  offset="0" style="stop-color:#70EDFF"/>
				<stop  offset="1" style="stop-color:#2671BC"/>
			</linearGradient>
			<path style="fill:url(#SVGID_00000002376636353951082710000001472844565933803453_);" d="M27.34,104.41h5.53v30.7h-5.53V104.41z"
				/>
			
				<linearGradient id="SVGID_00000093144094451508292050000003528197031400673182_" gradientUnits="userSpaceOnUse" x1="47.2705" y1="82.3458" x2="47.2705" y2="180.1238">
				<stop  offset="0" style="stop-color:#70EDFF"/>
				<stop  offset="1" style="stop-color:#2671BC"/>
			</linearGradient>
			<path style="fill:url(#SVGID_00000093144094451508292050000003528197031400673182_);" d="M42.77,126.83
				c0.65,2.58,2.74,4.01,5.69,4.01c2.01,0,3.89-0.7,5.65-2.05l2.29,3.77c-2.41,2.01-5.12,3.03-8.1,3.03
				c-6.26,0.12-11.21-4.75-11.09-10.6c-0.12-5.85,4.75-10.72,10.6-10.6c5.61,0,9.54,4.13,9.54,9.41c0,0.98-0.12,2.01-0.37,3.03
				H42.77z M51.98,122.95c-0.04-2.5-1.96-4.09-4.38-4.09c-2.33,0-4.22,1.6-4.83,4.09H51.98z"/>
			
				<linearGradient id="SVGID_00000013905819356256627040000017181443209203261329_" gradientUnits="userSpaceOnUse" x1="69.5158" y1="82.3458" x2="69.5158" y2="180.1238">
				<stop  offset="0" style="stop-color:#70EDFF"/>
				<stop  offset="1" style="stop-color:#2671BC"/>
			</linearGradient>
			<path style="fill:url(#SVGID_00000013905819356256627040000017181443209203261329_);" d="M80.46,114.84l-10.03,20.75h-1.84
				l-10.03-20.75h5.81l5.12,11.46l5.12-11.46H80.46z"/>
			
				<linearGradient id="SVGID_00000077299835606686991350000007306206183488801950_" gradientUnits="userSpaceOnUse" x1="90.7368" y1="82.3458" x2="90.7368" y2="180.1238">
				<stop  offset="0" style="stop-color:#70EDFF"/>
				<stop  offset="1" style="stop-color:#2671BC"/>
			</linearGradient>
			<path style="fill:url(#SVGID_00000077299835606686991350000007306206183488801950_);" d="M99.86,135.1h-5.08v-1.96
				c-1.47,1.51-3.6,2.46-6.18,2.46c-4.3,0-7-2.5-7-6.06c0-3.64,2.95-5.89,7.65-5.89h5.07v-0.9c0-2.25-1.31-3.56-3.77-3.56
				c-2.09,0-3.56,0.86-5.36,2.78l-2.87-3.4c2.33-2.78,5.28-4.17,8.84-4.17c5.28,0,8.68,3.07,8.68,8.68V135.1z M94.34,127.28H90
				c-1.8,0-2.82,0.7-2.82,2.05c0,1.35,1.15,2.21,2.91,2.21c2.41,0,4.26-1.68,4.26-4.01V127.28z"/>
			
				<linearGradient id="SVGID_00000036930413983915442230000012746917798494234752_" gradientUnits="userSpaceOnUse" x1="110.6482" y1="82.3458" x2="110.6482" y2="180.1238">
				<stop  offset="0" style="stop-color:#70EDFF"/>
				<stop  offset="1" style="stop-color:#2671BC"/>
			</linearGradient>
			<path style="fill:url(#SVGID_00000036930413983915442230000012746917798494234752_);" d="M118.2,135.1
				c-1.31,0.33-2.58,0.49-3.81,0.49c-5.12,0-8.1-2.54-8.1-7.61v-8.47h-3.19v-4.67h3.19v-5.12h5.53v5.12h5.73v4.67h-5.73v7.98
				c0,2.29,1.15,3.15,3.77,3.15c0.33,0,1.19-0.04,2.62-0.16V135.1z"/>
			
				<linearGradient id="SVGID_00000133507938387939099660000006992779871708448699_" gradientUnits="userSpaceOnUse" x1="130.7219" y1="82.3458" x2="130.7219" y2="180.1238">
				<stop  offset="0" style="stop-color:#70EDFF"/>
				<stop  offset="1" style="stop-color:#2671BC"/>
			</linearGradient>
			<path style="fill:url(#SVGID_00000133507938387939099660000006992779871708448699_);" d="M126.22,126.83
				c0.65,2.58,2.74,4.01,5.69,4.01c2.01,0,3.89-0.7,5.65-2.05l2.29,3.77c-2.41,2.01-5.12,3.03-8.1,3.03
				c-6.26,0.12-11.21-4.75-11.09-10.6c-0.12-5.85,4.75-10.72,10.6-10.6c5.61,0,9.54,4.13,9.54,9.41c0,0.98-0.12,2.01-0.37,3.03
				H126.22z M135.43,122.95c-0.04-2.5-1.96-4.09-4.38-4.09c-2.33,0-4.22,1.6-4.83,4.09H135.43z"/>
			
				<linearGradient id="SVGID_00000168085142342047479880000015223255200271847558_" gradientUnits="userSpaceOnUse" x1="163.7518" y1="82.3458" x2="163.7518" y2="180.1238">
				<stop  offset="0" style="stop-color:#70EDFF"/>
				<stop  offset="1" style="stop-color:#2671BC"/>
			</linearGradient>
			<path style="fill:url(#SVGID_00000168085142342047479880000015223255200271847558_);" d="M160.97,113.08h-8.64v-4.99h22.84v4.99
				h-8.68v22.02h-5.53V113.08z"/>
			
				<linearGradient id="SVGID_00000046301099757430946590000002040175164054555576_" gradientUnits="userSpaceOnUse" x1="184.4192" y1="82.3458" x2="184.4192" y2="180.1238">
				<stop  offset="0" style="stop-color:#70EDFF"/>
				<stop  offset="1" style="stop-color:#2671BC"/>
			</linearGradient>
			<path style="fill:url(#SVGID_00000046301099757430946590000002040175164054555576_);" d="M179.92,126.83
				c0.65,2.58,2.74,4.01,5.69,4.01c2.01,0,3.89-0.7,5.65-2.05l2.29,3.77c-2.41,2.01-5.12,3.03-8.1,3.03
				c-6.26,0.12-11.21-4.75-11.09-10.6c-0.12-5.85,4.75-10.72,10.6-10.6c5.61,0,9.54,4.13,9.54,9.41c0,0.98-0.12,2.01-0.37,3.03
				H179.92z M189.13,122.95c-0.04-2.5-1.96-4.09-4.38-4.09c-2.33,0-4.22,1.6-4.83,4.09H189.13z"/>
			
				<linearGradient id="SVGID_00000011747678691716262350000001188378442254952581_" gradientUnits="userSpaceOnUse" x1="207.462" y1="82.3458" x2="207.462" y2="180.1238">
				<stop  offset="0" style="stop-color:#70EDFF"/>
				<stop  offset="1" style="stop-color:#2671BC"/>
			</linearGradient>
			<path style="fill:url(#SVGID_00000011747678691716262350000001188378442254952581_);" d="M208.49,114.39
				c3.97,0,7.04,1.88,8.8,4.99l-3.85,2.99c-1.27-1.84-2.74-2.95-4.87-2.95c-3.11,0-5.32,2.37-5.32,5.53c0,3.23,2.21,5.57,5.32,5.57
				c2.09,0,3.56-1.06,4.87-2.91l3.85,2.95c-1.76,3.11-4.87,5.03-8.8,5.03c-5.93,0.12-10.93-4.79-10.85-10.64
				C197.64,119.02,202.47,114.39,208.49,114.39z"/>
			
				<linearGradient id="SVGID_00000116940501553815642600000008982192983219216285_" gradientUnits="userSpaceOnUse" x1="230.689" y1="82.3458" x2="230.689" y2="180.1238">
				<stop  offset="0" style="stop-color:#70EDFF"/>
				<stop  offset="1" style="stop-color:#2671BC"/>
			</linearGradient>
			<path style="fill:url(#SVGID_00000116940501553815642600000008982192983219216285_);" d="M240,135.1h-5.48v-11.79
				c0-2.33-1.51-3.93-3.77-3.93c-2.25,0-3.85,1.6-3.85,3.93v11.79h-5.53v-30.7h5.53v12.16c1.35-1.35,3.32-2.17,5.57-2.17
				c4.58,0,7.53,3.23,7.53,8.14V135.1z"/>
		</g>
	</g>
</g>
</svg>
